<?xml version="1.0" standalone="no"?>
<!DOCTYPE svg PUBLIC "-//W3C//DTD SVG 20010904//EN"
 "http://www.w3.org/TR/2001/REC-SVG-20010904/DTD/svg10.dtd">
<svg version="1.0" xmlns="http://www.w3.org/2000/svg"
 width="808.000000pt" height="808.000000pt" viewBox="0 0 808.000000 808.000000"
 preserveAspectRatio="xMidYMid meet">
<metadata>
Created by potrace 1.14, written by Peter Selinger 2001-2017
</metadata>
<g transform="translate(0.000000,808.000000) scale(0.100000,-0.100000)"
fill="#000000" stroke="none">
<path d="M1425 8054 c10 -16 24 -38 32 -49 17 -26 17 -50 -2 -65 -16 -14 -21
-35 -5 -25 11 7 50 -16 50 -29 0 -5 8 -15 18 -23 9 -8 11 -12 5 -8 -7 3 -13 2
-13 -3 0 -5 9 -12 20 -15 16 -4 20 -13 20 -44 0 -25 -3 -33 -9 -24 -5 8 -9
-15 -8 -63 0 -42 3 -76 7 -76 4 0 7 -27 6 -60 -2 -47 -7 -64 -24 -79 -12 -10
-22 -23 -22 -30 0 -24 -97 -7 -105 19 -3 9 -23 25 -45 35 -22 10 -37 22 -33
28 4 6 -4 8 -20 5 -21 -4 -34 4 -70 41 -25 26 -46 55 -49 66 -2 11 -11 19 -19
18 -8 -2 -30 12 -48 31 -27 28 -33 40 -29 66 4 28 2 31 -15 26 -28 -7 -49 7
-82 54 -20 28 -25 44 -17 49 17 10 0 27 -29 26 -21 0 -26 -5 -26 -27 0 -22 5
-28 23 -28 13 0 25 -8 29 -19 3 -10 16 -31 30 -47 18 -21 21 -32 14 -46 -5
-10 -14 -18 -20 -18 -6 0 -7 -5 -3 -11 5 -8 9 -8 14 1 5 9 9 9 14 1 4 -6 15
-11 26 -11 22 0 64 -66 61 -96 -1 -11 6 -27 15 -35 12 -9 15 -10 10 -1 -4 6
-2 12 3 12 6 0 11 -10 11 -21 0 -12 8 -29 18 -38 10 -9 25 -28 35 -43 15 -25
15 -28 1 -36 -15 -8 -15 -10 0 -15 9 -4 16 -17 16 -30 0 -14 7 -30 15 -37 24
-20 20 -101 -6 -129 -18 -19 -30 -22 -73 -19 -28 2 -57 8 -63 15 -7 6 -21 9
-31 7 -9 -3 -31 2 -47 10 -36 19 -66 20 -84 4 -11 -11 -12 -10 -6 0 4 9 2 12
-6 10 -18 -4 -79 22 -80 33 -1 5 -2 14 -3 19 0 6 -6 14 -12 18 -7 4 -14 18
-15 32 -5 33 -20 42 -36 22 -8 -12 -12 -13 -13 -4 0 7 -4 11 -9 8 -13 -8 -91
67 -91 87 0 9 -4 17 -9 17 -4 0 -6 12 -3 26 4 23 2 25 -14 17 -11 -5 -25 -8
-31 -7 -7 1 -17 2 -23 3 -5 0 -10 6 -10 11 0 6 -16 28 -36 48 -61 63 -67 104
-18 122 34 13 26 34 -14 38 -30 3 -32 1 -32 -27 0 -28 -2 -30 -28 -25 -25 5
-28 3 -27 -23 0 -23 -4 -28 -25 -28 -14 0 -26 -4 -27 -9 -1 -5 -7 -13 -15 -17
-10 -7 -9 -9 3 -9 9 0 19 -7 23 -15 3 -8 10 -15 17 -15 6 0 9 6 6 14 -7 17 39
51 48 36 3 -6 15 -10 26 -10 10 0 19 -4 19 -9 0 -5 20 -28 45 -52 41 -40 45
-47 40 -77 -6 -32 -5 -34 23 -31 30 4 34 1 90 -64 32 -37 32 -40 17 -63 -16
-25 -12 -50 6 -38 11 7 73 -6 65 -13 -3 -4 5 -16 18 -28 16 -15 23 -33 24 -61
1 -84 20 -209 34 -238 7 -13 7 -16 -1 -12 -7 5 -11 -2 -11 -16 -1 -23 -29 -82
-30 -63 0 6 -6 2 -14 -7 -13 -17 -61 -14 -50 3 3 5 1 9 -5 9 -5 0 -13 -4 -16
-10 -3 -6 -18 1 -33 15 -15 14 -33 23 -39 20 -7 -2 -13 2 -13 10 0 8 -3 14 -7
14 -5 -1 -19 -1 -33 0 -29 1 -110 67 -110 89 0 10 -7 12 -25 8 -18 -5 -33 1
-60 25 -19 17 -35 40 -35 50 0 14 -7 19 -27 19 -35 0 -116 72 -107 94 5 12 -1
15 -25 13 -26 -2 -29 -5 -24 -24 3 -14 1 -23 -6 -23 -6 0 -11 -4 -11 -8 0 -12
34 -11 42 1 4 7 22 -3 46 -24 43 -36 62 -71 43 -77 -24 -8 -9 -24 19 -20 16 3
30 0 30 -5 0 -6 3 -8 6 -5 9 10 58 -46 58 -67 0 -12 13 -28 31 -39 53 -32 85
-76 85 -115 0 -12 4 -21 9 -21 5 0 13 -9 16 -20 3 -11 13 -20 21 -20 9 0 12
-5 8 -11 -3 -6 -3 -14 2 -18 46 -32 23 -125 -33 -140 -44 -12 -114 -3 -137 17
-11 9 -17 12 -13 6 4 -7 -24 -11 -88 -12 -86 0 -95 1 -100 19 -4 12 -13 18
-21 15 -7 -3 -13 -2 -12 2 1 6 -19 56 -28 70 -1 2 -13 -4 -26 -12 -23 -15 -27
-14 -64 14 -21 16 -42 30 -46 30 -18 0 -6 -24 25 -52 22 -21 32 -40 32 -61 0
-27 3 -30 37 -33 42 -3 66 -20 63 -44 -1 -9 0 -9 2 -2 12 35 40 -11 42 -70 1
-15 12 -52 26 -83 14 -30 25 -58 24 -61 0 -4 5 -10 12 -14 9 -6 9 -18 1 -50
-8 -35 -8 -41 4 -36 8 3 14 1 14 -4 0 -6 -4 -10 -10 -10 -5 0 -10 -6 -10 -13
0 -11 -43 -43 -63 -46 -4 -1 -14 5 -23 13 -8 8 -21 13 -29 9 -8 -3 -27 3 -42
12 -18 12 -28 14 -31 7 -2 -8 -11 -8 -28 -1 -52 19 -55 15 -53 -67 2 -61 5
-74 17 -69 11 4 13 -1 10 -18 -4 -20 -1 -23 14 -19 46 12 81 -86 44 -127 -10
-11 -24 -17 -32 -14 -8 3 -14 0 -14 -6 0 -6 -9 -11 -20 -11 -20 0 -20 -7 -20
-1771 0 -1597 2 -1771 16 -1765 8 3 12 2 9 -4 -4 -6 7 -10 24 -10 31 0 42 -14
19 -23 -7 -3 -3 -6 8 -6 27 -1 39 -55 17 -77 -8 -8 -12 -18 -9 -23 4 -5 -8
-20 -26 -32 -55 -39 -58 -44 -58 -111 l0 -63 40 0 c22 0 40 2 40 5 0 14 74 31
124 29 52 -2 56 -4 71 -36 16 -33 12 -97 -6 -109 -5 -3 -9 -14 -9 -24 0 -24
-20 -36 -31 -19 -5 8 -9 9 -9 4 0 -6 5 -16 11 -22 9 -9 6 -24 -11 -58 -17 -34
-20 -49 -11 -54 14 -9 -23 -61 -44 -61 -8 0 -19 -9 -25 -21 -9 -15 -19 -20
-43 -17 -30 3 -32 1 -29 -29 3 -26 -3 -36 -32 -58 -20 -15 -36 -34 -36 -41 0
-19 13 -17 42 5 31 25 74 36 82 22 13 -21 36 -12 36 14 0 14 7 28 15 31 8 3
17 13 20 23 8 26 55 40 88 26 21 -9 52 -8 125 1 67 9 109 10 134 3 37 -9 65
-40 53 -58 -3 -5 2 -11 11 -13 14 -3 13 -7 -5 -30 -12 -14 -21 -34 -21 -43 0
-9 -9 -19 -21 -22 -16 -4 -17 -8 -7 -14 10 -7 8 -9 -6 -9 -11 0 -16 -3 -13 -7
4 -3 2 -12 -4 -19 -6 -8 -9 -21 -5 -29 3 -10 0 -15 -11 -15 -9 0 -13 -3 -10
-7 9 -9 -43 -63 -60 -63 -7 0 -13 -4 -13 -10 0 -5 -7 -10 -16 -10 -12 0 -15
-7 -12 -30 3 -16 3 -28 0 -26 -2 3 -14 -7 -26 -21 -13 -14 -34 -27 -47 -29
-13 -1 -28 -3 -32 -3 -5 -1 -5 -10 -2 -21 10 -31 -66 -103 -100 -94 -19 5 -25
2 -25 -10 0 -9 4 -16 10 -16 5 0 7 -8 3 -17 -3 -10 -2 -15 2 -10 5 4 17 -1 28
-10 19 -18 20 -17 15 9 -3 17 0 32 8 39 8 6 14 18 14 25 0 8 6 11 15 8 8 -4
15 -1 15 5 0 18 40 35 53 22 18 -18 26 -13 29 21 4 43 44 71 111 77 4 1 7 6 7
12 0 27 70 74 124 84 20 4 34 10 32 14 -3 4 15 16 40 27 24 10 44 22 44 27 0
12 38 8 75 -7 19 -8 35 -22 35 -30 0 -9 5 -16 10 -16 12 0 6 -103 -7 -123 -4
-7 -8 -14 -8 -17 -1 -3 -5 -23 -9 -45 -5 -22 -8 -62 -8 -89 1 -40 -2 -49 -19
-53 -14 -4 -17 -8 -9 -13 16 -10 4 -31 -14 -24 -7 3 -16 -2 -19 -10 -4 -9 -17
-16 -30 -16 -22 0 -24 -4 -23 -42 0 -36 -6 -50 -38 -85 -33 -37 -42 -41 -69
-36 -30 6 -30 5 -25 -28 5 -30 0 -40 -42 -87 -27 -28 -55 -52 -64 -52 -8 0
-18 -5 -21 -10 -11 -17 -48 9 -42 30 3 12 -2 20 -13 23 -14 3 -19 -3 -24 -25
-9 -45 -8 -46 21 -50 20 -2 28 -9 28 -23 0 -12 8 -21 20 -23 30 -6 44 -21 38
-42 -4 -14 0 -18 14 -15 10 2 24 4 31 4 21 2 14 41 -8 41 -11 0 -21 5 -21 10
-1 6 -2 16 -3 23 -3 18 15 67 24 67 5 0 27 20 51 45 23 24 47 41 53 37 6 -3
19 -8 29 -9 19 -3 24 26 7 43 -7 7 3 25 32 55 51 54 70 62 95 44 25 -20 31
-18 31 8 0 41 7 62 25 78 9 9 17 21 17 27 0 6 12 9 28 7 15 -2 32 0 37 3 6 4
12 7 15 7 58 8 100 18 100 25 0 4 8 6 19 3 10 -3 22 0 25 6 4 6 17 11 30 11
12 0 28 6 34 12 10 10 17 10 32 0 11 -6 24 -12 30 -12 22 0 50 -36 50 -65 0
-32 -22 -103 -42 -134 -9 -15 -9 -23 2 -38 8 -10 10 -15 5 -10 -5 4 -17 -11
-27 -33 -10 -22 -23 -40 -29 -40 -5 0 -14 -12 -19 -26 -6 -14 -14 -23 -19 -19
-15 9 -24 -14 -12 -29 8 -10 6 -20 -9 -39 -11 -14 -20 -30 -20 -35 0 -5 -16
-13 -35 -16 -34 -7 -35 -9 -30 -40 5 -23 2 -36 -9 -45 -9 -8 -16 -20 -16 -29
0 -12 7 -9 28 11 15 15 38 27 51 27 19 0 23 4 19 25 -7 34 38 85 77 88 26 2
30 6 29 29 -1 15 3 25 7 22 5 -3 12 3 16 13 3 10 19 29 35 42 15 13 26 27 23
31 -2 4 7 5 20 2 17 -3 27 1 31 12 3 9 15 16 25 16 13 0 19 7 19 22 0 12 3 18
7 15 3 -4 15 1 25 10 28 25 68 28 69 6 0 -16 1 -16 8 2 7 18 8 18 18 1 5 -10
14 -17 19 -16 5 1 13 -12 18 -29 5 -17 13 -31 17 -31 5 0 9 -22 9 -50 0 -30
-4 -50 -11 -50 -10 0 -8 -71 3 -155 2 -11 -4 -23 -12 -27 -12 -5 -11 -7 4 -7
12 -1 16 -6 12 -17 -3 -9 -6 -18 -6 -20 0 -2 -9 -4 -20 -4 -11 0 -19 -3 -19
-7 3 -17 -1 -33 -8 -32 -11 2 -53 -13 -53 -18 0 -2 7 -11 15 -19 17 -17 20
-54 5 -54 -5 0 -10 -5 -10 -10 0 -19 -51 -91 -60 -85 -5 3 -20 3 -34 -1 -24
-6 -24 -7 -10 -29 10 -15 13 -33 8 -51 l-7 -29 24 21 c18 16 30 19 50 14 24
-7 26 -5 21 14 -3 11 -10 24 -15 28 -11 7 36 87 60 101 7 4 13 14 13 22 0 11
7 12 32 4 18 -5 35 -9 37 -9 2 0 0 12 -3 26 -4 16 -1 35 7 48 8 11 17 34 21
49 3 15 11 25 16 22 5 -3 11 -1 14 4 4 5 25 12 48 16 24 4 53 15 67 23 13 9
31 17 39 19 9 1 19 9 24 17 5 8 25 18 46 22 20 4 43 11 49 16 9 7 21 5 38 -6
14 -9 29 -14 34 -12 14 9 34 -51 28 -86 -3 -18 -13 -54 -22 -80 -12 -32 -14
-52 -7 -63 6 -12 3 -29 -10 -58 -15 -29 -17 -42 -8 -47 8 -5 1 -12 -19 -21
-30 -13 -44 -49 -20 -49 8 0 8 -5 -1 -15 -11 -13 -5 -15 40 -14 49 2 52 3 47
25 -2 14 1 24 7 24 6 0 5 4 -2 9 -11 7 -11 9 2 14 9 4 16 13 16 20 0 8 14 25
32 38 18 13 56 49 85 80 29 31 58 56 65 57 7 1 30 5 51 8 29 5 37 3 37 -9 0
-8 6 -17 14 -20 19 -8 31 -64 16 -82 -9 -11 -7 -12 11 -8 21 6 22 4 17 -42 -3
-26 -2 -62 4 -81 l9 -34 139 0 c77 0 140 4 140 9 0 16 88 50 124 49 32 -1 36
-4 31 -22 -5 -16 -4 -17 3 -7 8 11 12 10 23 -8 l14 -21 1636 0 1637 0 4 54 c9
106 90 145 157 76 15 -17 33 -30 39 -30 7 0 14 -11 18 -25 3 -14 10 -23 14
-20 5 3 21 -8 37 -25 21 -23 37 -30 65 -30 21 0 38 2 38 4 0 2 -7 20 -15 41
-10 22 -13 41 -7 48 5 7 12 20 16 31 5 14 2 17 -9 12 -16 -6 -16 -5 -19 34 0
14 -5 31 -10 38 -12 19 3 84 22 99 22 17 119 14 133 -4 6 -7 19 -13 29 -13 10
0 21 -7 24 -15 3 -9 11 -15 18 -14 7 1 26 -3 42 -10 16 -6 35 -10 42 -7 7 3
15 -2 18 -11 4 -9 14 -13 25 -10 25 6 65 -79 55 -117 -7 -28 -2 -31 25 -16 21
10 53 -14 86 -63 12 -19 25 -27 44 -26 14 1 19 3 11 6 -14 4 -80 97 -80 113 0
5 7 16 16 24 17 18 11 36 -12 36 -9 0 -29 13 -45 29 -32 33 -40 78 -21 123 6
15 9 34 6 41 -3 8 0 26 6 41 6 17 6 25 0 21 -6 -3 -10 1 -10 9 0 9 -4 16 -10
16 -13 0 -13 37 1 45 5 4 9 17 8 28 -2 27 10 59 21 52 4 -2 15 4 25 15 24 26
41 25 80 -5 18 -13 35 -21 39 -18 3 4 6 -1 6 -10 0 -9 22 -26 53 -40 47 -23
88 -58 111 -96 6 -10 5 -12 -2 -7 -8 4 -10 2 -6 -7 3 -8 14 -17 25 -20 11 -3
16 -1 13 5 -4 6 1 6 13 -1 29 -15 57 -62 56 -93 0 -23 2 -26 18 -18 25 14 22
15 64 -36 32 -39 36 -49 27 -65 -13 -21 -3 -32 18 -19 10 6 21 3 34 -8 18 -16
18 -16 7 7 -9 17 -10 26 -2 34 17 17 13 26 -9 22 -22 -4 -60 22 -60 41 0 6 -9
19 -20 29 -16 14 -18 21 -8 33 10 11 9 17 -6 28 -11 7 -22 11 -27 8 -11 -7
-62 63 -54 76 3 5 -1 20 -9 32 -9 12 -16 19 -16 15 0 -5 -7 -1 -16 8 -9 9 -14
19 -11 22 4 3 -3 13 -14 22 -11 9 -22 30 -24 46 -5 49 -12 72 -37 117 -28 50
-27 93 4 101 13 4 17 10 12 18 -5 9 -2 10 9 6 10 -3 17 -2 17 3 0 15 41 12 73
-5 15 -8 45 -16 65 -17 20 -2 39 -6 42 -10 3 -3 34 -9 70 -12 36 -4 70 -7 77
-8 9 -1 9 -7 1 -22 -11 -20 -10 -20 8 -6 10 8 16 11 12 6 -4 -5 -1 -18 7 -30
8 -11 15 -31 15 -43 0 -24 14 -31 25 -13 3 6 15 10 26 10 11 0 17 -4 14 -10
-4 -6 1 -7 12 -3 10 3 15 3 11 -1 -4 -4 9 -21 28 -38 25 -22 34 -38 34 -60 0
-26 3 -30 22 -25 24 7 78 -26 78 -48 0 -7 9 -15 19 -18 41 -10 64 -107 27
-107 -8 0 -19 -6 -25 -14 -9 -11 -5 -15 20 -20 46 -9 53 -8 40 7 -8 11 -7 18
7 30 16 15 20 15 40 1 25 -17 28 -13 10 15 -18 29 -3 53 27 45 22 -6 25 -4 21
17 -3 13 -5 27 -5 32 -2 15 -29 6 -34 -12 -4 -17 -57 -37 -57 -21 0 4 -11 12
-24 18 -13 6 -27 20 -31 31 -3 12 -12 21 -20 21 -18 0 -45 45 -42 72 2 19 -3
23 -26 23 -40 1 -121 88 -107 115 16 29 12 40 -14 40 -13 0 -35 9 -48 20 -14
10 -27 17 -30 15 -3 -3 -10 6 -16 20 -8 18 -8 25 -1 25 7 0 9 10 4 28 -4 15
-7 37 -7 50 1 12 -3 22 -9 22 -6 0 -8 9 -4 21 4 13 3 19 -3 16 -15 -10 -31
133 -18 164 6 14 16 24 22 22 6 -2 14 5 16 15 4 16 12 19 34 14 16 -3 32 -11
37 -18 4 -7 13 -11 20 -8 15 5 70 -20 61 -28 -2 -3 5 -6 18 -6 13 -1 32 -3 43
-6 11 -2 23 -5 26 -5 9 -1 66 -57 70 -69 2 -5 15 -12 29 -16 19 -6 21 -5 10 3
-8 6 -10 11 -4 11 6 0 24 -10 40 -22 16 -12 30 -23 32 -24 3 -2 10 -29 11 -48
1 -4 13 -5 27 -2 20 5 33 1 50 -15 19 -18 24 -19 24 -6 0 8 -9 19 -20 22 -22
7 -28 50 -7 58 6 2 9 7 5 11 -3 4 -15 3 -25 -2 -31 -17 -95 29 -98 70 -1 15
-9 24 -23 26 -11 2 -24 11 -27 22 -3 10 -14 20 -24 23 -28 7 -55 54 -55 95 0
19 -2 30 -4 23 -2 -6 -10 -11 -18 -11 -9 0 -13 4 -9 10 7 12 -16 50 -32 50
-14 0 -24 28 -18 55 2 11 4 26 4 33 1 7 5 11 10 8 5 -3 11 1 15 9 3 8 14 15
25 15 11 0 22 4 25 8 7 12 126 15 126 3 0 -16 131 5 142 23 12 17 9 174 -2
181 -6 4 -8 10 -5 15 3 4 -2 10 -10 14 -8 3 -15 12 -15 20 0 8 -4 16 -10 18
-13 4 -23 108 -10 108 6 0 10 8 11 18 0 14 2 14 8 -3 7 -17 9 -16 15 12 4 18
12 33 17 33 5 0 9 863 9 2190 0 1745 -3 2190 -12 2190 -7 1 -24 10 -37 20 -21
18 -23 26 -19 72 3 28 12 56 20 62 13 10 30 40 32 58 1 3 4 10 9 14 4 4 7 49
7 101 0 93 0 94 -27 104 -16 6 -52 10 -80 10 -29 0 -53 5 -53 10 0 5 -5 9 -11
9 -5 0 -8 -4 -5 -8 9 -15 -54 -34 -89 -28 -53 10 -85 48 -85 100 0 31 5 46 16
50 8 3 12 10 9 16 -4 6 1 7 11 3 13 -5 16 -3 11 10 -4 11 1 18 15 22 15 6 19
13 16 35 -2 16 -1 27 4 24 4 -3 8 -1 8 4 0 14 66 83 81 85 25 4 39 18 39 38 0
27 36 60 75 66 26 4 32 9 27 25 -3 12 3 25 17 34 21 15 29 44 11 44 -5 0 -14
-9 -21 -21 -8 -17 -17 -20 -40 -15 -25 5 -29 3 -29 -18 0 -26 -71 -83 -90 -71
-6 4 -27 -10 -48 -33 -40 -42 -71 -57 -114 -53 -16 1 -28 -1 -28 -6 0 -5 -21
-20 -46 -33 -35 -19 -48 -22 -51 -12 -4 10 -8 8 -18 -5 -13 -17 -14 -17 -34 1
-12 11 -21 15 -21 10 0 -5 -6 0 -12 11 -13 22 -17 115 -6 115 5 0 8 14 8 30 0
17 5 30 11 30 5 0 8 4 5 9 -4 5 1 36 9 68 10 37 12 59 5 61 -31 11 62 92 105
92 18 0 18 1 5 34 -7 19 -6 26 2 26 6 0 9 2 6 5 -3 3 12 24 33 46 33 36 42 41
74 37 32 -4 34 -2 28 17 -4 11 -7 30 -6 43 1 16 -3 22 -13 18 -8 -3 -25 -1
-39 4 -26 10 -26 11 -29 -41 -1 -14 -17 -41 -38 -61 -31 -31 -40 -35 -77 -33
-36 3 -41 1 -36 -14 7 -22 -4 -53 -16 -45 -5 3 -9 1 -9 -5 0 -5 -8 -12 -17
-14 -16 -4 -16 -5 1 -6 16 -1 15 -4 -8 -22 -20 -16 -33 -19 -54 -13 -15 4 -30
7 -34 6 -4 -1 -23 -4 -43 -6 -20 -3 -43 -10 -51 -17 -7 -6 -23 -9 -34 -6 -13
3 -20 0 -20 -9 0 -20 -71 -18 -110 4 -31 17 -32 18 -26 72 3 35 11 59 22 67 9
7 14 19 10 28 -3 9 0 18 8 21 7 3 13 18 14 35 1 36 40 102 55 92 7 -4 8 0 4
11 -5 12 -2 16 11 14 13 -2 17 4 17 27 0 46 40 95 78 95 24 0 28 3 19 12 -18
18 -15 43 8 63 11 10 20 24 20 32 0 7 14 16 30 20 43 8 38 43 -8 58 -19 5 -23
3 -22 -12 4 -33 0 -42 -31 -78 -24 -27 -37 -34 -56 -30 -23 4 -25 1 -20 -23 7
-36 -47 -106 -63 -82 -6 10 -10 11 -10 3 0 -7 -7 -13 -15 -13 -8 0 -14 -3 -14
-7 3 -19 -2 -34 -9 -29 -4 2 -13 -8 -20 -23 -8 -18 -35 -38 -88 -65 -46 -23
-78 -46 -81 -57 -3 -10 -10 -19 -17 -19 -6 0 -22 -3 -35 -7 -16 -4 -22 -2 -18
4 4 6 1 11 -6 10 -35 -1 -47 5 -47 22 0 11 -5 23 -10 26 -6 4 -9 54 -8 130 2
68 7 121 12 118 4 -3 5 5 1 17 -5 17 -4 21 5 15 8 -5 11 -4 6 3 -4 6 -13 9
-22 5 -12 -5 -13 -1 -3 21 7 14 18 26 26 26 7 0 13 6 13 14 0 16 27 30 53 27
23 -3 22 6 -5 35 -17 18 -34 24 -66 24 -39 0 -43 -2 -37 -20 3 -11 2 -20 -2
-20 -5 0 -17 -17 -26 -38 -14 -31 -22 -38 -44 -37 -16 0 -35 -2 -43 -6 -55
-25 -77 -32 -95 -30 -14 1 -16 -1 -7 -7 8 -6 2 -13 -22 -24 -49 -24 -106 -33
-106 -18 0 7 -6 10 -14 7 -21 -8 -44 23 -52 71 -6 39 -5 42 17 42 23 1 23 1 5
15 -16 12 -17 18 -8 27 30 30 13 38 -76 38 -82 0 -90 -2 -112 -25 -18 -19 -33
-25 -58 -23 -19 1 -36 8 -39 15 -3 7 -11 13 -19 13 -8 0 -14 5 -14 10 0 7
-639 10 -1896 10 -1710 0 -1896 -2 -1890 -16 3 -8 2 -12 -4 -9 -6 4 -10 -6
-10 -22 0 -46 -11 -71 -32 -76 -14 -4 -19 -11 -14 -22 3 -9 2 -13 -4 -10 -6 3
-10 2 -10 -4 0 -17 -54 -7 -72 14 -10 11 -17 16 -18 12 0 -4 -9 -3 -21 3 -12
7 -18 18 -15 26 3 8 -4 18 -15 25 -12 6 -18 17 -15 25 4 9 -1 14 -14 14 -11 0
-28 9 -37 20 -12 14 -30 20 -60 20 -40 0 -63 -12 -44 -24 4 -3 9 -27 10 -53 0
-27 5 -73 10 -103 5 -30 7 -58 4 -62 -2 -5 1 -8 6 -8 18 0 12 -16 -18 -50 -28
-32 -30 -33 -87 -26 -45 5 -64 12 -81 31 -13 15 -28 22 -37 19 -9 -3 -16 -1
-16 6 0 6 -4 8 -10 5 -5 -3 -10 -2 -10 4 0 12 -64 34 -99 34 -25 0 -54 25 -45
39 3 4 -3 19 -12 33 -10 16 -14 34 -10 50 6 24 5 25 -29 21 -20 -3 -33 -1 -30
5 4 5 0 9 -7 9 -7 1 -22 15 -33 33 -11 17 -29 33 -39 35 -19 4 -19 4 -1 -24z
m250 -223 c3 -5 2 -12 -3 -15 -5 -3 -9 1 -9 9 0 17 3 19 12 6z m2952 -1158
c-3 -10 -5 -4 -5 12 0 17 2 24 5 18 2 -7 2 -21 0 -30z m358 -13 c3 -5 1 -10
-4 -10 -6 0 -11 5 -11 10 0 6 2 10 4 10 3 0 8 -4 11 -10z m-590 -20 c3 -5 1
-10 -4 -10 -6 0 -11 5 -11 10 0 6 2 10 4 10 3 0 8 -4 11 -10z m249 -29 c3 -4
3 -11 0 -14 -8 -8 -34 3 -34 14 0 11 27 12 34 0z m217 -16 c-1 -15 -24 -12
-29 3 -3 9 2 13 12 10 10 -1 17 -7 17 -13z m106 -7 c-3 -8 -6 -5 -6 6 -1 11 2
17 5 13 3 -3 4 -12 1 -19z m-817 -8 c0 -5 -4 -10 -10 -10 -5 0 -10 5 -10 10 0
6 5 10 10 10 6 0 10 -4 10 -10z m266 -6 c-9 -23 15 -83 35 -89 10 -3 29 -3 43
1 21 5 25 11 23 35 -2 34 16 40 23 7 4 -16 14 -24 33 -26 31 -4 53 14 60 49 4
22 5 21 12 -8 4 -18 13 -33 19 -34 6 0 19 -2 28 -4 21 -4 42 20 35 38 -6 17 9
44 19 34 6 -6 10 -25 13 -63 1 -7 15 -11 34 -10 27 1 33 6 42 34 12 42 25 41
25 -3 0 -29 4 -36 26 -41 28 -7 40 1 46 31 5 31 33 25 33 -8 0 -19 8 -31 27
-41 31 -16 48 -5 48 31 0 13 4 23 9 23 5 0 7 10 3 22 -4 17 -2 20 12 15 10 -4
23 -7 29 -7 6 0 3 -6 -6 -13 -10 -6 -20 -29 -23 -49 -6 -34 -4 -38 21 -48 30
-11 55 1 55 26 0 8 7 14 15 14 18 0 18 -60 0 -60 -16 -1 28 -24 49 -25 11 -1
25 10 35 27 9 15 19 28 23 28 3 0 4 9 1 20 -3 11 -1 20 5 20 20 0 23 -20 8
-52 -9 -18 -15 -43 -14 -55 3 -27 43 -48 58 -30 6 6 21 25 34 40 l23 28 -5
-30 c-2 -17 -8 -31 -14 -31 -15 0 -4 -34 17 -51 10 -9 26 -14 34 -11 23 9 61
55 56 69 -2 6 3 14 11 17 9 4 14 -1 14 -14 0 -11 -4 -20 -8 -20 -15 0 -32 -72
-22 -90 18 -34 70 -29 70 7 0 7 5 13 12 13 6 0 20 7 30 17 10 9 18 11 18 5 0
-6 -5 -12 -11 -14 -5 -2 -11 -10 -13 -18 -1 -8 -7 -25 -14 -36 -15 -27 4 -55
40 -59 19 -2 29 4 39 21 7 13 16 24 21 24 4 0 8 11 8 25 0 23 1 24 19 9 18
-16 18 -17 0 -35 -10 -10 -25 -32 -34 -49 -15 -29 -15 -31 11 -55 23 -21 28
-22 41 -10 8 8 19 15 24 15 6 0 7 5 4 10 -3 6 3 10 14 10 25 0 26 -12 5 -46
-16 -23 -16 -26 6 -49 12 -13 28 -23 34 -22 14 2 76 69 76 81 0 5 7 3 15 -4
13 -11 12 -16 -10 -38 -14 -13 -25 -28 -25 -33 0 -4 -7 -14 -15 -23 -14 -13
-12 -18 12 -40 30 -28 42 -25 91 24 17 16 33 30 36 30 13 0 5 -28 -9 -34 -8
-3 -15 -12 -15 -21 0 -8 -4 -15 -9 -15 -5 0 -12 -12 -15 -26 -7 -28 14 -53 45
-54 18 0 69 44 69 60 0 20 36 10 37 -10 1 -11 -2 -18 -8 -15 -5 4 -12 -1 -15
-9 -3 -9 -12 -16 -19 -16 -14 0 -27 -24 -30 -52 -1 -10 2 -15 6 -12 5 3 9 -2
9 -10 0 -22 41 -32 52 -12 5 9 18 16 28 16 24 0 25 -8 5 -30 -35 -39 -25 -66
28 -77 24 -4 77 33 77 55 0 13 2 13 14 -3 12 -17 10 -21 -25 -44 -29 -19 -39
-32 -39 -52 0 -41 24 -55 66 -40 45 16 55 7 23 -22 -28 -26 -28 -62 2 -77 22
-13 84 12 93 36 3 9 10 12 16 9 13 -8 13 -35 -1 -35 -17 0 -77 -50 -75 -63 4
-25 23 -48 44 -52 12 -2 22 0 22 6 0 5 9 9 20 9 27 0 25 -10 -6 -35 -20 -16
-24 -26 -19 -47 8 -32 32 -42 69 -28 53 20 68 1 16 -20 -46 -19 -51 -32 -29
-67 18 -29 22 -30 49 -20 22 8 33 8 41 0 8 -8 4 -15 -19 -27 -17 -9 -32 -21
-35 -28 -5 -14 19 -68 31 -68 12 0 81 26 88 33 10 9 24 -2 24 -19 0 -8 -6 -14
-12 -12 -18 4 -78 -22 -78 -34 0 -5 -4 -6 -10 -3 -15 9 -12 -28 4 -51 9 -11
26 -19 45 -19 39 0 43 -16 8 -33 -20 -10 -27 -20 -27 -41 0 -16 6 -33 13 -39
14 -12 99 -4 108 10 11 17 28 0 22 -22 -4 -14 -11 -19 -24 -15 -27 9 -96 -13
-103 -32 -6 -14 -3 -14 15 3 l22 19 -17 -27 c-17 -25 -17 -27 2 -46 11 -11 17
-24 14 -28 -4 -3 2 -2 14 4 17 9 29 10 63 3 13 -3 -23 -29 -37 -27 -37 6 -58
-57 -29 -86 20 -20 107 -11 107 10 0 12 3 13 11 5 6 -6 9 -19 7 -29 -2 -14
-11 -18 -33 -16 -43 4 -90 -18 -89 -43 1 -41 18 -61 49 -61 37 1 42 -27 5 -32
-14 -2 -30 -8 -37 -14 -14 -11 -10 -61 6 -66 6 -2 9 -8 6 -12 -3 -5 3 -9 12
-9 25 0 51 -6 59 -14 4 -4 -8 -7 -26 -7 -71 0 -82 -101 -11 -106 9 -1 45 -2
81 -4 62 -2 63 -3 25 -10 -22 -4 -44 -6 -48 -3 -4 3 -14 0 -21 -6 -7 -6 -26
-11 -43 -13 -27 -2 -32 -6 -35 -35 -3 -26 1 -37 18 -48 24 -16 83 -23 101 -12
6 4 13 -2 16 -13 6 -21 -11 -39 -22 -23 -10 16 -83 14 -101 -2 -34 -30 -2
-103 40 -92 16 4 20 0 20 -18 0 -22 -3 -23 -37 -18 -21 3 -35 2 -31 -2 4 -4 3
-15 -2 -25 -14 -26 -1 -58 28 -66 50 -14 65 -14 77 -4 16 14 28 -2 19 -25 -4
-10 -12 -14 -23 -9 -9 3 -25 6 -36 6 -58 1 -63 -2 -75 -38 -14 -40 -4 -54 37
-54 28 0 38 -17 23 -36 -10 -11 -16 -12 -26 -3 -11 9 -19 7 -34 -11 -38 -43
-23 -77 40 -91 31 -7 45 -7 50 2 11 16 24 -7 16 -28 -4 -10 -10 -12 -19 -6
-17 14 -110 16 -102 3 3 -5 1 -10 -4 -10 -6 0 -11 -16 -11 -36 0 -21 4 -33 10
-29 6 3 10 1 10 -5 0 -7 6 -10 14 -7 13 5 36 -10 36 -24 0 -12 -36 -17 -54 -7
-10 6 -16 5 -16 -2 0 -6 -6 -8 -12 -4 -7 4 -10 4 -6 -1 4 -4 3 -16 -3 -27 -15
-27 13 -68 47 -68 16 0 23 -4 18 -11 -3 -6 -18 -9 -33 -6 -35 7 -49 -2 -60
-40 -10 -34 -2 -40 83 -73 43 -16 26 -21 -34 -10 -64 12 -81 2 -78 -46 2 -29
7 -36 38 -46 19 -7 41 -11 48 -10 6 2 12 -3 12 -11 0 -21 -12 -28 -27 -15 -8
6 -34 13 -59 15 -39 2 -46 0 -53 -19 -9 -25 -3 -57 10 -59 5 -1 15 -2 22 -3 6
0 12 -8 12 -16 0 -10 -11 -15 -35 -15 -27 0 -37 -6 -50 -28 -14 -26 -14 -29
10 -48 14 -11 38 -22 53 -26 29 -6 34 -32 8 -41 -8 -3 -11 0 -8 5 3 5 -17 19
-45 31 -28 12 -48 19 -45 16 3 -3 -3 -14 -14 -25 -25 -25 -24 -35 6 -63 30
-28 23 -38 -23 -30 -37 7 -52 -5 -52 -40 0 -20 47 -66 68 -66 6 0 12 -7 12
-15 0 -8 -7 -15 -15 -15 -8 0 -15 4 -15 8 0 13 -68 42 -84 36 -9 -3 -18 -14
-21 -25 -4 -10 -10 -19 -15 -19 -17 0 1 -28 21 -33 10 -3 19 -12 19 -21 0 -19
-13 -20 -40 -4 -15 10 -23 9 -39 -6 -12 -11 -21 -27 -21 -36 0 -18 49 -70 66
-70 6 0 11 -7 11 -15 0 -8 -4 -12 -9 -9 -4 3 -8 0 -8 -6 0 -6 -5 -8 -10 -5 -6
4 -8 10 -5 15 3 4 -13 17 -35 28 -22 10 -37 22 -33 26 3 3 2 6 -4 6 -12 0 -48
-41 -48 -55 0 -6 15 -30 33 -53 19 -23 29 -42 24 -42 -5 0 -15 7 -22 15 -7 8
-17 15 -23 15 -6 0 -18 7 -28 16 -16 15 -20 14 -40 -5 -29 -27 -31 -45 -8 -70
10 -11 19 -25 19 -31 0 -5 9 -10 20 -10 11 0 20 -4 20 -10 0 -5 -2 -10 -4 -10
-2 0 -11 -3 -20 -6 -10 -4 -16 -1 -16 9 0 18 -50 57 -73 57 -32 0 -60 -66 -32
-76 22 -9 18 -34 -5 -34 -11 0 -20 4 -20 9 0 20 -41 18 -64 -2 -22 -19 -23
-22 -7 -35 9 -7 10 -10 2 -6 -8 4 -2 -9 13 -29 17 -22 33 -34 42 -30 17 6 18
-9 2 -25 -14 -14 -42 -16 -34 -3 9 14 -50 71 -72 71 -12 0 -28 -10 -36 -22
-14 -20 -14 -25 -1 -45 29 -44 12 -58 -32 -23 -20 16 -28 17 -44 7 -11 -7 -22
-20 -25 -29 -6 -19 21 -78 36 -78 6 0 10 -9 10 -20 0 -32 -18 -23 -40 20 -12
23 -25 38 -30 35 -4 -3 -10 0 -12 7 -3 9 -15 6 -39 -9 -35 -23 -36 -28 -12
-51 7 -7 13 -22 13 -33 0 -16 -4 -18 -17 -10 -10 5 -26 19 -36 31 l-17 21 -25
-23 c-23 -22 -24 -26 -13 -62 7 -21 18 -40 25 -43 10 -4 11 -9 2 -19 -16 -20
-31 -17 -25 3 8 25 -43 80 -68 75 -34 -7 -51 -31 -38 -53 15 -23 16 -49 2 -49
-6 0 -15 10 -21 23 -10 21 -20 24 -59 18 -3 -1 -10 -9 -17 -20 -9 -14 -8 -24
2 -44 20 -40 0 -42 -23 -3 -16 28 -25 33 -46 29 -14 -3 -23 -9 -20 -14 3 -5
-2 -9 -11 -9 -10 0 -13 -4 -8 -13 4 -6 9 -23 11 -37 2 -13 8 -28 14 -31 7 -4
7 -9 -1 -13 -6 -4 -14 1 -18 11 -4 10 -12 24 -17 31 -32 38 -37 41 -59 33 -18
-7 -22 -17 -23 -50 -1 -23 3 -44 7 -47 5 -3 3 -11 -4 -18 -14 -16 -31 -10 -20
7 11 18 12 37 3 37 -5 0 -12 9 -15 21 -5 16 -14 19 -38 17 -18 -2 -33 -9 -33
-15 -1 -7 -2 -25 -3 -40 -1 -30 -14 -23 -35 18 -7 14 -21 23 -38 24 -24 1 -28
-3 -29 -30 -2 -36 -2 -34 3 -65 2 -17 -2 -25 -11 -25 -11 0 -15 13 -16 43 -1
44 -14 62 -48 62 -10 0 -20 -8 -23 -17 -3 -10 -10 -26 -15 -35 -5 -10 -6 -24
-3 -33 3 -8 2 -15 -3 -15 -5 0 -10 10 -11 23 -1 12 -4 31 -6 42 -3 11 -5 23
-5 26 -1 3 -15 6 -32 5 -26 -1 -33 -6 -44 -38 -8 -25 -9 -40 -2 -47 7 -7 5
-12 -7 -17 -22 -8 -30 1 -21 23 5 10 9 32 10 49 1 24 -3 30 -14 26 -9 -3 -12
-1 -7 6 5 8 -1 12 -16 12 -30 0 -45 -11 -49 -34 -6 -28 -24 -21 -24 9 -1 30
-2 31 -41 38 -29 6 -32 3 -47 -33 -8 -22 -13 -49 -10 -61 5 -19 4 -20 -16 -9
-16 8 -19 15 -13 23 13 16 17 57 9 83 -14 42 -77 36 -77 -6 0 -20 -26 -34 -35
-19 -4 5 -4 18 0 29 8 25 -9 56 -35 63 -24 6 -60 -23 -60 -48 0 -8 -5 -15 -11
-15 -6 0 -8 -9 -4 -20 5 -16 2 -20 -14 -20 -12 0 -21 5 -21 10 0 6 5 10 10 10
6 0 10 9 10 19 0 11 4 23 10 26 14 9 13 48 -2 63 -16 16 -66 15 -83 -2 -8 -7
-12 -16 -9 -18 2 -3 -1 -10 -9 -16 -10 -8 -16 -6 -25 9 -7 10 -8 19 -3 19 19
0 19 30 0 54 -30 39 -64 34 -93 -13 -15 -23 -23 -47 -19 -59 5 -21 -4 -23 -41
-7 -18 8 -18 9 2 16 12 5 22 17 22 27 0 10 4 22 9 27 13 15 22 63 13 69 -18
11 -92 24 -86 15 3 -5 0 -9 -5 -9 -6 0 -11 -6 -11 -13 0 -11 -34 -47 -44 -47
-2 0 -3 14 -2 30 0 17 4 30 7 30 4 0 9 9 12 21 4 15 -2 25 -26 40 -18 10 -40
19 -49 19 -23 0 -71 -76 -65 -101 4 -14 0 -19 -13 -19 -26 0 -35 18 -17 38 35
42 44 103 18 126 -25 23 -84 18 -89 -7 -2 -10 -14 -29 -28 -42 -13 -13 -24
-29 -24 -35 0 -5 -4 -10 -10 -10 -15 0 -12 26 5 40 9 7 13 21 10 30 -3 9 1 23
10 30 27 22 19 57 -17 70 -46 17 -68 19 -68 4 0 -6 -7 -15 -16 -18 -9 -4 -14
-9 -11 -13 4 -3 -3 -14 -15 -24 -17 -15 -18 -21 -8 -33 20 -25 2 -38 -27 -19
-21 14 -23 18 -11 27 22 17 36 48 41 93 5 38 3 42 -29 59 -30 17 -36 17 -44 4
-8 -13 -10 -13 -10 -1 0 11 -4 10 -14 -4 -8 -11 -12 -25 -9 -32 3 -7 1 -13 -5
-13 -6 0 -17 -3 -26 -6 -12 -5 -16 0 -16 19 0 14 7 27 15 31 22 8 18 29 -10
60 -37 40 -81 33 -106 -16 -10 -20 -23 -39 -28 -43 -7 -4 -7 -15 0 -31 l9 -26
-29 18 c-31 20 -39 40 -17 38 8 -1 23 20 35 47 25 58 15 92 -32 109 -39 13
-47 13 -47 -3 0 -16 -37 -57 -50 -57 -13 0 -13 36 0 61 9 15 7 26 -9 48 -20
28 -61 48 -61 30 0 -5 -6 -9 -12 -9 -20 0 -69 -83 -55 -92 7 -4 3 -10 -13 -16
-20 -7 -26 -6 -31 7 -4 9 -1 21 6 26 16 13 55 90 55 109 0 9 -17 27 -37 41
-35 23 -38 24 -45 8 -3 -10 -7 -12 -7 -5 -1 21 -21 3 -21 -18 0 -17 -26 -40
-44 -40 -12 0 -5 42 11 67 17 25 16 26 -11 49 -15 13 -35 24 -44 24 -23 0 -62
-28 -62 -44 0 -8 -6 -16 -14 -19 -9 -3 -12 -15 -9 -31 6 -30 -8 -34 -32 -10
-17 18 -16 39 3 39 17 0 42 39 44 69 1 14 7 26 13 26 5 1 -1 10 -14 21 -13 11
-30 18 -37 15 -8 -3 -11 0 -8 9 4 10 0 12 -15 8 -21 -5 -38 -21 -41 -38 -1 -5
-10 -13 -21 -17 -23 -9 -26 18 -5 47 15 21 11 42 -14 67 -19 18 -72 18 -78 0
-2 -6 -12 -20 -22 -32 -10 -12 -16 -28 -13 -36 6 -18 -28 -19 -45 -2 -17 17
-15 31 3 24 10 -3 23 9 40 38 29 50 31 63 8 88 -26 28 -58 22 -103 -22 -42
-40 -70 -48 -36 -11 10 11 15 25 11 30 -3 6 1 14 10 17 9 4 14 13 11 21 -3 8
-1 11 4 8 15 -9 12 8 -6 33 -17 24 -62 54 -49 31 6 -9 3 -11 -8 -6 -24 9 -77
-55 -69 -85 5 -21 4 -22 -14 -8 -10 8 -22 20 -26 25 -10 13 -10 27 0 21 16
-10 72 57 72 87 0 43 -71 71 -93 36 -6 -10 -17 -19 -23 -19 -6 0 -17 -7 -24
-15 -7 -8 -17 -15 -23 -15 -5 0 -3 8 5 18 8 9 18 25 21 35 4 10 12 15 18 11 8
-4 9 1 4 16 -5 15 -4 20 4 16 6 -4 11 -2 11 3 0 6 -4 11 -10 11 -5 0 -7 6 -4
14 3 9 -3 17 -18 22 -13 4 -25 6 -27 5 -2 -2 -7 2 -11 9 -8 12 -74 -51 -76
-73 -1 -7 -2 -16 -3 -21 0 -5 -10 2 -22 15 -20 23 -20 24 -2 27 10 2 31 21 46
42 23 32 26 43 17 60 -19 35 -48 44 -78 24 -37 -25 -52 -26 -52 -3 0 11 7 19
16 19 8 0 13 4 10 9 -4 5 -1 11 5 13 8 3 5 15 -7 39 -15 27 -24 34 -40 29 -33
-8 -74 -43 -74 -62 0 -10 -7 -18 -15 -18 -8 0 -15 2 -15 4 0 2 -3 11 -6 20 -3
9 -1 16 5 16 21 0 70 61 64 79 -10 27 -43 53 -59 47 -8 -3 -13 -9 -10 -14 2
-4 -9 -9 -26 -10 -30 -2 -31 -2 -14 20 29 40 29 49 5 74 l-25 24 -41 -27 c-23
-15 -40 -30 -37 -34 11 -18 -14 -16 -29 2 -9 10 -13 20 -9 20 4 1 12 2 17 3
21 2 54 33 63 57 10 27 -14 59 -38 51 -8 -3 -10 0 -5 9 5 8 -3 4 -17 -8 -43
-40 -65 -26 -28 17 15 17 17 27 9 42 -14 27 -33 32 -61 17 -13 -7 -26 -12 -30
-11 -5 1 -8 -5 -8 -14 0 -20 -24 -13 -28 9 -2 11 1 15 10 12 16 -6 64 34 63
53 0 8 -8 19 -17 26 -10 7 -15 16 -11 20 4 4 0 4 -10 0 -9 -3 -17 -10 -17 -15
0 -5 -7 -9 -15 -9 -20 0 -19 19 1 41 35 38 -6 70 -57 45 -39 -20 -39 -20 -39
0 0 8 4 12 10 9 5 -3 10 -1 10 4 0 6 9 11 19 11 24 0 34 26 20 52 -8 15 -17
18 -35 14 -17 -5 -24 -2 -24 9 0 8 6 15 14 15 7 0 16 9 19 19 6 26 -27 58 -45
44 -25 -19 -48 -23 -48 -8 0 9 9 15 23 15 27 0 41 10 50 32 6 18 -17 43 -32
34 -5 -4 -12 -2 -16 4 -3 5 5 15 18 21 42 19 23 59 -29 59 -19 0 -34 4 -34 9
0 4 11 6 24 4 16 -3 31 2 46 17 25 25 20 32 -35 51 l-40 13 43 6 c52 8 70 23
53 43 -6 8 -25 17 -41 21 -18 3 -30 12 -30 21 0 14 2 14 20 2 45 -31 102 11
61 45 -29 23 -28 43 1 27 18 -10 24 -8 35 7 18 25 16 42 -7 56 -28 18 -25 29
5 18 18 -7 28 -5 40 7 23 22 15 44 -24 70 -38 26 -20 31 32 9 28 -11 34 -11
47 2 8 9 15 22 16 29 2 14 -46 53 -65 53 -13 0 -14 10 -2 28 6 11 14 8 36 -12
28 -26 50 -32 71 -18 21 13 20 46 -1 64 -17 15 -18 19 -6 27 10 6 19 4 28 -5
8 -8 19 -14 25 -14 18 0 48 32 48 51 0 18 -53 69 -72 69 -6 0 -6 6 2 15 11 13
16 12 36 -10 26 -28 70 -48 85 -39 6 3 15 18 20 32 8 21 7 29 -7 39 -23 17
-27 53 -5 45 9 -3 19 -10 23 -16 8 -12 59 -17 52 -5 -2 4 3 9 11 13 26 9 17
46 -20 83 -19 19 -35 39 -35 44 0 19 22 8 54 -26 48 -51 92 -47 110 10 4 14
-4 31 -30 59 -19 21 -33 40 -30 43 6 6 46 -15 73 -39 27 -25 50 -21 76 14 l20
27 -29 35 c-16 19 -35 35 -41 35 -18 1 -16 26 2 41 13 10 15 9 15 -9 0 -11 5
-21 12 -21 6 0 23 -13 37 -30 26 -30 26 -30 59 -14 18 9 30 19 28 22 -3 2 -1
13 5 23 7 13 6 19 -1 19 -6 0 -8 5 -5 10 3 6 -1 10 -9 10 -9 0 -16 9 -16 20 0
28 19 25 53 -7 20 -19 31 -24 34 -15 3 6 10 12 17 12 7 0 19 11 26 25 11 21
11 29 0 50 -7 14 -17 25 -22 25 -4 0 -8 7 -8 15 0 21 18 19 32 -5 7 -11 22
-20 33 -20 17 0 17 -2 5 -10 -12 -8 -11 -10 6 -10 11 0 31 11 44 25 12 13 28
22 34 19 6 -3 2 2 -8 10 -13 11 -15 16 -6 16 10 0 10 3 -2 18 -8 9 -19 29 -26
45 -6 15 -16 27 -22 27 -6 0 -8 5 -5 10 4 7 16 1 30 -15 13 -14 29 -25 35 -25
5 0 10 -7 10 -15 0 -8 6 -15 13 -16 6 0 20 -2 29 -4 24 -5 70 49 55 65 -9 10
-9 11 3 6 10 -5 9 -3 -2 7 -10 7 -22 26 -27 40 -6 15 -17 27 -26 27 -21 0 -19
17 5 30 17 9 20 8 20 -7 1 -19 20 -44 57 -77 22 -18 23 -18 58 4 34 21 47 49
23 51 -9 0 -9 2 1 6 10 4 11 7 1 13 -14 8 -42 81 -35 88 2 3 10 -7 16 -22 7
-14 18 -26 25 -26 7 0 18 -9 24 -20 18 -34 75 -24 91 17 11 29 -23 113 -46
113 -21 0 -19 17 4 30 27 14 34 13 27 -6 -8 -22 58 -101 83 -99 10 0 29 8 41
16 25 16 34 65 14 73 -8 3 -14 14 -14 23 0 10 -7 29 -16 41 -12 18 -13 22 -1
22 8 0 19 -11 25 -25 8 -17 16 -23 28 -18 13 5 16 2 12 -9 -18 -46 48 -57 94
-16 18 15 26 28 19 28 -7 0 -11 6 -8 13 2 6 -3 24 -11 39 -25 43 -5 45 31 3
29 -34 36 -37 65 -30 18 3 32 11 32 16 0 6 4 8 8 5 5 -3 9 8 10 25 0 17 -5 32
-12 35 -7 3 -11 15 -9 28 3 13 -2 28 -11 35 -20 17 -21 31 -1 31 8 0 15 -9 15
-19 0 -11 8 -22 18 -25 10 -3 23 -19 29 -35 9 -24 16 -29 37 -27 15 2 40 14
56 27 l30 24 -26 53 c-13 28 -31 52 -39 52 -15 0 -22 30 -7 30 4 0 17 3 29 6
18 5 21 3 16 -14 -3 -13 5 -35 23 -59 16 -21 29 -39 30 -41 1 -2 8 -4 16 -6 7
-1 20 -6 28 -10 8 -5 12 -6 8 -2 -3 4 8 20 25 36 30 27 30 28 15 52 -14 21
-16 39 -9 66 3 10 41 -21 41 -33 0 -8 7 -15 15 -15 8 0 15 -5 15 -11 0 -6 9
-8 23 -4 12 4 27 8 32 9 6 0 15 10 22 21 13 23 -8 90 -37 116 -12 10 -15 21
-10 29 5 8 7 17 4 21 -2 4 5 5 16 2 12 -3 20 -12 18 -22 -4 -25 25 -82 39 -76
7 2 12 1 12 -3 -4 -22 3 -31 24 -30 27 2 82 38 70 47 -4 3 -9 23 -11 44 -2 32
0 37 18 37 13 0 20 -7 20 -19 0 -10 6 -23 13 -28 16 -13 68 -7 78 9 5 7 9 9 9
3 1 -5 5 0 10 12 11 28 -23 113 -45 113 -21 0 -19 14 4 34 23 21 44 12 36 -14
-6 -18 6 -48 34 -82 30 -37 101 -13 101 35 0 14 -7 28 -17 32 -17 6 -17 7 1
21 26 18 36 18 36 -2 0 -21 24 -44 47 -44 30 0 63 29 63 56 0 30 -26 84 -41
84 -19 0 -4 23 20 32 21 7 23 6 18 -13 -6 -23 32 -94 55 -102 7 -2 26 2 42 10
26 14 28 17 21 59 -7 52 4 57 35 14 23 -33 50 -38 73 -15 8 8 18 11 22 7 4 -4
5 9 1 28 -4 19 -9 41 -10 48 -1 7 -8 18 -14 24 -17 17 -15 25 8 31 22 6 37 -8
20 -18 -6 -4 -1 -22 15 -48 20 -34 30 -42 51 -40 31 3 55 31 45 53 -12 24 -12
80 -1 80 6 0 8 -5 5 -11 -4 -5 0 -18 8 -27 8 -9 17 -26 19 -37 2 -14 12 -21
35 -23 28 -3 33 1 39 23 4 15 4 46 0 71 -5 36 -3 44 10 44 11 0 14 -5 10 -16z
m-401 -14 c-3 -5 -11 -10 -16 -10 -6 0 -7 5 -4 10 3 6 11 10 16 10 6 0 7 -4 4
-10z m1165 -39 c0 -6 -4 -13 -10 -16 -5 -3 -10 1 -10 9 0 9 5 16 10 16 6 0 10
-4 10 -9z m-1130 -61 c0 -5 -4 -10 -10 -10 -5 0 -10 5 -10 10 0 6 5 10 10 10
6 0 10 -4 10 -10z m-257 -120 c3 -11 2 -20 -3 -20 -8 0 -20 24 -20 41 0 17 17
1 23 -21z m-273 -116 c0 -8 -4 -12 -10 -9 -5 3 -10 10 -10 16 0 5 5 9 10 9 6
0 10 -7 10 -16z m2260 -54 c0 -5 -4 -10 -10 -10 -5 0 -10 5 -10 10 0 6 5 10
10 10 6 0 10 -4 10 -10z m-2530 -86 c0 -9 -5 -14 -12 -12 -18 6 -21 28 -4 28
9 0 16 -7 16 -16z m-407 -207 c-4 -7 -8 -16 -8 -21 0 -14 -18 -17 -35 -6 -13
9 -11 13 10 29 25 20 46 19 33 -2z m-376 -29 c-3 -8 -6 -5 -6 6 -1 11 2 17 5
13 3 -3 4 -12 1 -19z m3823 -192 c0 -3 -4 -8 -10 -11 -5 -3 -10 -1 -10 4 0 6
5 11 10 11 6 0 10 -2 10 -4z m120 -206 c0 -5 -5 -10 -11 -10 -5 0 -7 5 -4 10
3 6 8 10 11 10 2 0 4 -4 4 -10z m-4302 -87 c-2 -10 -13 -19 -26 -21 -24 -4
-25 -2 -16 22 9 23 46 21 42 -1z m-191 -25 c-3 -8 -6 -5 -6 6 -1 11 2 17 5 13
3 -3 4 -12 1 -19z m4562 -4 c3 -16 1 -17 -13 -5 -19 16 -21 34 -3 29 6 -3 14
-13 16 -24z m-4484 -74 c3 -5 -1 -10 -9 -10 -9 0 -16 5 -16 10 0 6 4 10 9 10
6 0 13 -4 16 -10z m4525 -30 c0 -5 -4 -10 -10 -10 -5 0 -10 5 -10 10 0 6 5 10
10 10 6 0 10 -4 10 -10z m80 -234 c0 -2 -7 -6 -15 -10 -8 -3 -15 -1 -15 4 0 6
7 10 15 10 8 0 15 -2 15 -4z m60 -246 c0 -5 -5 -10 -11 -10 -5 0 -7 5 -4 10 3
6 8 10 11 10 2 0 4 -4 4 -10z m-5200 -40 c0 -5 -4 -10 -10 -10 -5 0 -10 5 -10
10 0 6 5 10 10 10 6 0 10 -4 10 -10z m5335 -200 c3 -5 -1 -10 -9 -10 -9 0 -16
5 -16 10 0 6 4 10 9 10 6 0 13 -4 16 -10z m-103 -22 c-12 -12 -35 -1 -27 12 3
5 13 6 21 3 10 -4 12 -9 6 -15z m-5392 -42 c0 -8 -7 -16 -15 -20 -17 -6 -18
-4 -9 18 8 20 24 21 24 2z m5420 -65 c0 -17 -12 -41 -21 -41 -10 0 -12 33 -2
43 9 10 23 9 23 -2z m97 -173 c-3 -8 -6 -5 -6 6 -1 11 2 17 5 13 3 -3 4 -12 1
-19z m-111 -255 c-10 -10 -19 5 -10 18 6 11 8 11 12 0 2 -7 1 -15 -2 -18z
m-5441 -111 c-3 -3 -15 -7 -28 -9 -21 -4 -21 -3 -2 11 18 13 44 12 30 -2z
m5595 -32 c0 -5 -4 -10 -10 -10 -5 0 -10 5 -10 10 0 6 5 10 10 10 6 0 10 -4
10 -10z m-160 -100 c0 -5 -4 -10 -10 -10 -5 0 -10 5 -10 10 0 6 5 10 10 10 6
0 10 -4 10 -10z m95 -10 c-3 -5 -11 -10 -16 -10 -6 0 -7 5 -4 10 3 6 11 10 16
10 6 0 7 -4 4 -10z m-48 -6 c-3 -3 -12 -4 -19 -1 -8 3 -5 6 6 6 11 1 17 -2 13
-5z m-87 -244 c0 -5 -4 -10 -10 -10 -5 0 -10 5 -10 10 0 6 5 10 10 10 6 0 10
-4 10 -10z m-22 -135 c-10 -22 -13 -23 -20 -10 -11 18 -2 35 17 35 12 0 12 -5
3 -25z m-5036 -17 c-7 -7 -12 -8 -12 -2 0 14 12 26 19 19 2 -3 -1 -11 -7 -17z
m5083 12 c3 -5 1 -10 -4 -10 -6 0 -11 5 -11 10 0 6 2 10 4 10 3 0 8 -4 11 -10z
m-4965 -265 c0 -8 -2 -15 -4 -15 -2 0 -6 7 -10 15 -3 8 -1 15 4 15 6 0 10 -7
10 -15z m110 -85 c0 -5 -2 -10 -4 -10 -3 0 -8 5 -11 10 -3 6 -1 10 4 10 6 0
11 -4 11 -10z m4695 0 c3 -6 -1 -7 -9 -4 -18 7 -21 14 -7 14 6 0 13 -4 16 -10z
m75 -30 c0 -5 -4 -10 -10 -10 -5 0 -10 5 -10 10 0 6 5 10 10 10 6 0 10 -4 10
-10z m-140 -210 c0 -5 -4 -10 -10 -10 -5 0 -10 5 -10 10 0 6 5 10 10 10 6 0
10 -4 10 -10z m-4293 -22 c-3 -8 -6 -5 -6 6 -1 11 2 17 5 13 3 -3 4 -12 1 -19z
m4328 12 c-3 -5 -10 -10 -16 -10 -5 0 -9 5 -9 10 0 6 7 10 16 10 8 0 12 -4 9
-10z m-4355 -40 c0 -5 -4 -10 -9 -10 -6 0 -13 5 -16 10 -3 6 1 10 9 10 9 0 16
-4 16 -10z m130 -80 c0 -5 -4 -10 -10 -10 -5 0 -10 5 -10 10 0 6 5 10 10 10 6
0 10 -4 10 -10z m178 -11 c-2 -6 -8 -10 -13 -10 -5 0 -11 4 -13 10 -2 6 4 11
13 11 9 0 15 -5 13 -11z m3837 -29 c3 -5 1 -10 -4 -10 -6 0 -11 5 -11 10 0 6
2 10 4 10 3 0 8 -4 11 -10z m-3905 -68 c0 -12 -3 -12 -17 -1 -10 7 -20 14 -22
16 -2 1 6 1 18 0 11 -1 21 -8 21 -15z m320 -62 c0 -5 -4 -10 -10 -10 -5 0 -10
5 -10 10 0 6 5 10 10 10 6 0 10 -4 10 -10z m266 -167 c-10 -10 -19 5 -10 18 6
11 8 11 12 0 2 -7 1 -15 -2 -18z m275 -146 c-13 -13 -26 -3 -16 12 3 6 11 8
17 5 6 -4 6 -10 -1 -17z m2789 13 c0 -5 -5 -10 -11 -10 -5 0 -7 5 -4 10 3 6 8
10 11 10 2 0 4 -4 4 -10z m-249 -93 c-1 -12 -15 -9 -19 4 -3 6 1 10 8 8 6 -3
11 -8 11 -12z m-2586 -27 c3 -5 2 -10 -4 -10 -5 0 -13 5 -16 10 -3 6 -2 10 4
10 5 0 13 -4 16 -10z m2640 -50 c-3 -5 -11 -10 -16 -10 -6 0 -7 5 -4 10 3 6
11 10 16 10 6 0 7 -4 4 -10z m-2385 -80 c0 -5 -4 -10 -10 -10 -5 0 -10 5 -10
10 0 6 5 10 10 10 6 0 10 -4 10 -10z m337 -26 c-3 -3 -12 -4 -19 -1 -8 3 -5 6
6 6 11 1 17 -2 13 -5z m1603 -74 c0 -5 -4 -10 -10 -10 -5 0 -10 5 -10 10 0 6
5 10 10 10 6 0 10 -4 10 -10z m-1650 -26 c0 -2 -7 -4 -15 -4 -8 0 -15 4 -15
10 0 5 7 7 15 4 8 -4 15 -8 15 -10z m310 -4 c0 -5 -5 -10 -11 -10 -5 0 -7 5
-4 10 3 6 8 10 11 10 2 0 4 -4 4 -10z m1240 -19 c0 -12 -20 -25 -27 -18 -7 7
6 27 18 27 5 0 9 -4 9 -9z m131 -34 c-13 -13 -26 -3 -16 12 3 6 11 8 17 5 6
-4 6 -10 -1 -17z m-1131 -27 c0 -5 -4 -10 -10 -10 -5 0 -10 5 -10 10 0 6 5 10
10 10 6 0 10 -4 10 -10z m680 -40 c0 -5 -4 -10 -10 -10 -5 0 -10 5 -10 10 0 6
5 10 10 10 6 0 10 -4 10 -10z m-440 -10 c0 -5 -7 -10 -16 -10 -8 0 -12 5 -9
10 3 6 10 10 16 10 5 0 9 -4 9 -10z m-20 -90 c0 -5 -2 -10 -4 -10 -3 0 -8 5
-11 10 -3 6 -1 10 4 10 6 0 11 -4 11 -10z m-123 -36 c-3 -3 -12 -4 -19 -1 -8
3 -5 6 6 6 11 1 17 -2 13 -5z m2278 -1163 c-6 -5 -25 10 -25 20 0 5 6 4 14 -3
8 -7 12 -15 11 -17z"/>
<path d="M4725 6153 c-64 -13 -142 -38 -133 -44 6 -4 -3 -14 -21 -25 -17 -10
-34 -27 -37 -37 -3 -10 -21 -34 -40 -53 -19 -19 -32 -39 -29 -44 3 -6 1 -10
-5 -10 -15 0 -41 -26 -33 -34 4 -3 -1 -6 -10 -6 -10 0 -17 -7 -17 -15 0 -8 -4
-15 -8 -15 -5 0 -19 -10 -32 -22 -14 -13 -28 -22 -33 -20 -5 1 -6 -1 -3 -6 5
-9 -28 -42 -43 -42 -5 0 -11 -7 -15 -15 -3 -8 -12 -12 -21 -9 -11 5 -14 2 -9
-11 6 -14 3 -16 -16 -10 -19 6 -22 4 -17 -9 4 -10 1 -16 -9 -16 -8 0 -17 -6
-20 -14 -3 -8 -12 -12 -20 -9 -9 3 -14 -1 -14 -12 0 -9 -5 -13 -10 -10 -6 3
-13 0 -16 -9 -3 -8 -12 -12 -20 -9 -9 3 -14 -1 -14 -12 0 -9 -4 -14 -9 -11
-11 7 -56 -15 -60 -29 -2 -5 -8 -9 -13 -7 -6 1 -16 -3 -24 -9 -8 -6 -14 -8
-15 -3 0 5 -4 1 -8 -10 -7 -18 -8 -18 -25 -1 -16 17 -17 16 -10 -9 4 -16 2
-26 -5 -26 -6 0 -11 5 -11 10 0 6 -5 10 -11 10 -6 0 -9 -6 -6 -14 3 -8 -2 -16
-15 -19 -11 -3 -17 -10 -13 -16 3 -7 0 -8 -9 -5 -9 3 -16 1 -16 -5 0 -6 -9
-11 -21 -11 -13 0 -18 -4 -13 -12 5 -8 2 -9 -9 -5 -11 4 -17 1 -17 -8 0 -17
-16 -20 -25 -5 -3 6 -11 10 -17 10 -6 0 -3 -10 8 -22 19 -21 19 -21 -4 -15
-19 4 -22 2 -17 -14 5 -14 2 -19 -13 -19 -11 0 -23 -8 -27 -17 -6 -17 -7 -17
-19 0 -7 9 -17 17 -22 17 -4 0 -3 -5 4 -12 20 -20 15 -40 -10 -33 -16 6 -20 4
-15 -9 7 -18 -8 -32 -18 -16 -11 18 -27 11 -22 -10 4 -15 0 -20 -13 -20 -10 0
-21 -8 -24 -17 -5 -12 -9 -14 -18 -5 -19 19 -30 14 -23 -9 6 -18 4 -20 -14
-14 -16 5 -21 2 -21 -10 0 -12 -6 -16 -20 -12 -13 3 -20 0 -20 -9 0 -22 -30
-16 -41 9 -9 20 -9 19 -4 -6 8 -40 -3 -52 -27 -30 -19 17 -19 17 -12 -11 6
-26 5 -27 -14 -17 -16 8 -21 7 -26 -5 -5 -13 -9 -14 -20 -5 -11 10 -16 8 -21
-9 -5 -16 -10 -18 -20 -10 -10 8 -15 8 -20 0 -4 -7 -16 -10 -26 -7 -10 3 -17
0 -16 -7 1 -6 -8 -10 -20 -9 -13 2 -23 -2 -23 -8 0 -8 -5 -8 -15 1 -12 10 -16
9 -21 -3 -3 -9 -12 -13 -21 -10 -8 3 -19 0 -24 -8 -6 -10 -9 -10 -9 -1 0 6 -4
12 -10 12 -5 0 -10 -6 -10 -14 0 -8 -10 -14 -22 -14 -29 0 -68 -7 -89 -16 -10
-4 -23 -6 -30 -4 -18 4 -99 -23 -99 -33 0 -4 -13 -10 -30 -14 -16 -4 -30 -10
-30 -15 0 -4 -13 -13 -30 -20 -16 -7 -30 -17 -30 -22 0 -5 -4 -6 -10 -3 -5 3
-10 -1 -10 -10 0 -10 -5 -13 -12 -9 -8 5 -9 2 -5 -10 5 -13 3 -17 -7 -13 -13
5 -31 -18 -28 -35 1 -5 -2 -8 -8 -8 -5 0 -10 -7 -10 -16 0 -8 -4 -12 -10 -9
-5 3 -10 -1 -10 -9 0 -9 -4 -16 -10 -16 -5 0 -10 -7 -10 -15 0 -18 -11 -19
-29 -2 -11 10 -13 8 -9 -9 6 -26 -16 -59 -33 -48 -8 5 -11 2 -7 -8 8 -20 -27
-49 -48 -41 -14 5 -15 3 -4 -16 9 -18 9 -22 -4 -19 -8 2 -15 -1 -16 -7 -1 -5
-10 -13 -21 -17 -11 -4 -17 -12 -14 -18 3 -5 -1 -10 -9 -10 -9 0 -16 -4 -16
-10 0 -5 -7 -10 -15 -10 -8 0 -15 -3 -15 -7 0 -16 -47 -30 -65 -21 -15 9 -15
7 -6 -11 7 -12 8 -21 2 -21 -5 0 -17 -7 -25 -16 -9 -8 -16 -11 -16 -5 0 6 -4
11 -10 11 -5 0 -10 -6 -10 -14 0 -8 -14 -17 -30 -21 -16 -4 -30 -11 -30 -16 0
-5 -7 -9 -15 -9 -8 0 -15 -3 -15 -7 0 -5 -12 -9 -27 -10 -14 0 -30 -8 -35 -17
-5 -9 -17 -16 -27 -16 -11 0 -38 -9 -62 -19 -24 -11 -47 -17 -53 -14 -5 3 -6
1 -2 -5 4 -7 1 -12 -6 -12 -8 0 -29 -11 -48 -25 -19 -14 -42 -25 -51 -25 -10
0 -23 -8 -28 -17 -6 -10 -11 -14 -11 -9 0 5 -9 1 -20 -9 -11 -10 -23 -15 -26
-12 -4 3 -27 -8 -53 -25 -96 -65 -119 -104 -93 -157 8 -18 23 -36 31 -39 9 -3
21 -11 28 -16 30 -26 41 -33 88 -55 28 -13 66 -33 85 -44 19 -12 37 -22 40
-23 12 -1 86 -40 91 -47 3 -4 19 -10 35 -13 16 -3 31 -9 32 -15 2 -5 8 -7 13
-3 5 3 9 0 9 -6 0 -6 6 -10 13 -9 29 4 47 -2 47 -16 0 -9 6 -12 15 -9 8 4 15
1 15 -6 0 -7 7 -10 15 -6 9 3 15 -1 15 -11 0 -13 3 -13 15 -3 12 10 15 9 15
-5 0 -11 5 -15 15 -11 9 3 15 0 15 -9 0 -9 6 -12 15 -9 10 4 15 0 15 -11 0
-12 5 -15 20 -10 11 4 20 2 20 -4 0 -6 7 -11 16 -11 8 0 12 -4 9 -10 -3 -5 3
-10 14 -10 24 0 27 -10 9 -28 -6 -6 -8 -15 -4 -19 4 -5 13 0 20 10 17 22 26
22 21 -2 -3 -15 1 -18 17 -13 17 4 20 2 15 -13 -5 -12 -3 -16 7 -12 8 3 22 -5
32 -19 11 -13 24 -24 31 -24 7 0 13 -7 13 -16 0 -10 6 -14 15 -10 10 4 15 -1
15 -15 0 -13 4 -18 12 -13 7 5 9 1 6 -13 -4 -16 -2 -19 14 -15 10 2 18 1 16
-4 -3 -9 24 -41 90 -110 18 -19 30 -39 26 -46 -4 -6 -3 -8 3 -5 5 3 28 -12 52
-33 23 -22 51 -42 62 -45 10 -4 19 -11 19 -17 0 -6 3 -8 7 -5 3 4 17 0 30 -8
16 -11 23 -12 23 -3 0 6 7 3 15 -8 11 -15 15 -16 16 -4 0 8 5 4 9 -10 6 -18 8
-20 9 -7 1 14 6 17 24 11 12 -4 24 -10 27 -13 3 -4 18 -6 33 -6 16 1 31 -3 34
-8 2 -4 11 -3 19 4 11 9 14 8 14 -6 0 -11 5 -15 15 -12 8 4 17 2 21 -4 4 -6
11 -6 20 2 13 10 18 6 15 -13 -2 -12 17 -9 25 3 5 8 10 7 16 -4 5 -9 15 -14
23 -11 10 4 15 0 15 -11 0 -15 2 -15 16 -4 13 10 17 10 24 -1 4 -7 15 -10 24
-7 10 4 16 1 16 -8 0 -18 12 -19 28 -3 9 9 12 8 12 -5 0 -14 6 -16 27 -11 22
6 25 4 20 -10 -4 -10 -1 -16 8 -16 8 0 15 6 15 13 1 7 6 5 14 -5 7 -10 23 -18
35 -18 19 0 21 -4 15 -22 -6 -21 -5 -21 10 -9 15 13 19 13 26 1 5 -8 6 -19 2
-25 -3 -5 1 -5 9 2 10 8 20 9 29 2 13 -8 13 -10 0 -18 -8 -6 -11 -13 -8 -17 4
-3 15 1 24 11 16 16 18 16 27 0 6 -12 4 -20 -10 -30 -25 -20 -8 -19 22 1 24
15 25 15 25 -4 0 -13 6 -19 18 -18 9 0 16 -4 15 -10 -1 -7 6 -10 17 -7 15 4
18 1 13 -17 -5 -19 -3 -21 14 -16 14 4 23 1 26 -9 4 -8 13 -12 21 -9 11 4 13
0 9 -15 -4 -17 -2 -20 11 -15 9 3 16 1 16 -5 0 -6 7 -11 15 -11 8 0 15 -7 15
-16 0 -8 4 -13 9 -10 5 3 17 -6 27 -19 10 -14 27 -25 36 -25 10 0 18 -4 18
-10 0 -5 7 -7 15 -4 11 5 13 2 9 -11 -6 -14 -3 -16 14 -10 13 4 22 2 22 -4 0
-6 7 -11 15 -11 8 0 14 -6 12 -13 -1 -6 6 -11 15 -9 9 1 19 -2 23 -8 3 -5 1
-10 -6 -10 -7 0 -9 -3 -6 -6 4 -4 14 -1 23 7 14 11 15 10 12 -7 -2 -15 2 -18
20 -16 12 2 22 -1 22 -7 0 -6 8 -7 17 -4 12 5 15 2 10 -10 -3 -9 -2 -17 2 -17
5 0 11 5 13 12 3 7 13 -2 23 -19 13 -22 26 -31 39 -30 13 1 20 -3 18 -12 -2
-9 4 -12 18 -8 13 3 20 0 20 -9 0 -8 7 -14 15 -14 8 0 15 -4 15 -10 0 -5 7
-10 16 -10 8 0 12 -5 9 -10 -3 -6 1 -10 9 -10 21 0 31 -21 15 -31 -7 -4 -10
-11 -6 -15 4 -4 14 1 22 12 14 18 16 18 19 -8 1 -7 7 -12 14 -11 16 4 16 -24
0 -30 -10 -4 -10 -6 -1 -6 6 -1 15 4 18 9 11 18 26 10 20 -10 -5 -15 -3 -18 9
-14 9 3 16 1 16 -5 0 -6 5 -11 11 -11 12 0 44 -30 32 -30 -4 0 0 -7 10 -14 12
-9 14 -16 8 -21 -6 -3 -11 -12 -11 -18 0 -7 4 -6 10 3 7 12 12 10 29 -9 12
-13 21 -30 21 -36 0 -7 7 -16 16 -19 8 -3 13 -10 10 -15 -3 -5 5 -11 17 -15
13 -3 29 -16 36 -29 31 -58 203 -67 289 -15 17 11 32 16 32 11 0 -4 5 -1 10 7
6 10 10 11 10 3 0 -7 4 -13 10 -13 5 0 7 6 5 13 -3 7 25 26 73 49 42 21 86 44
96 50 24 16 77 74 92 100 5 10 13 15 17 12 4 -4 7 -1 7 7 0 9 9 25 20 37 11
12 20 26 20 32 0 7 9 9 23 5 18 -5 19 -4 7 5 -11 9 -12 13 -2 17 6 2 12 11 12
19 0 9 5 12 10 9 6 -3 10 0 10 7 0 8 9 20 20 28 11 8 20 20 20 27 0 7 7 13 15
13 8 0 15 6 15 13 0 8 4 7 10 -3 8 -12 10 -11 10 8 0 12 5 22 10 22 6 0 24 14
40 30 17 17 35 28 40 25 6 -3 10 1 10 9 0 10 6 13 15 10 8 -4 15 -2 15 3 0 4
21 20 48 33 26 14 48 28 50 32 2 3 14 5 27 2 17 -3 25 1 30 16 4 11 21 27 38
36 35 18 72 54 108 106 13 18 26 35 29 38 18 17 70 161 70 195 0 9 4 14 9 11
4 -3 7 6 5 19 -1 14 2 25 7 25 5 0 7 11 5 25 -3 14 -1 25 3 25 5 0 11 18 15
40 3 21 12 43 19 47 6 4 13 24 14 43 1 19 4 49 6 65 3 17 5 36 6 43 0 6 9 12
19 13 9 0 12 3 5 5 -7 3 -9 12 -6 20 3 8 1 14 -3 14 -5 0 -9 47 -9 105 0 87 3
105 15 105 12 0 13 2 1 9 -7 5 -10 14 -7 20 4 6 3 11 -1 11 -5 0 -9 25 -8 55
0 30 -4 55 -9 55 -4 0 -6 6 -3 14 3 7 0 19 -6 25 -8 8 -6 11 7 11 15 0 16 3 6
15 -7 8 -9 15 -5 15 4 0 2 7 -5 15 -9 11 -9 15 -1 15 7 0 9 5 4 13 -12 19 -13
40 -1 54 8 10 6 13 -6 13 -9 0 -16 5 -16 10 0 6 4 10 9 10 4 0 7 12 5 27 -1
15 2 33 7 39 6 8 4 14 -7 18 -13 5 -14 9 -4 21 7 8 9 15 4 16 -5 1 2 5 16 9
24 8 24 8 3 9 -18 1 -22 6 -21 26 1 14 6 25 11 25 4 0 5 5 2 10 -3 6 -3 16 1
22 11 17 12 48 3 48 -4 0 -4 13 1 29 4 16 6 32 2 35 -3 3 3 6 14 6 15 0 16 2
5 9 -15 10 -24 89 -12 106 4 6 7 24 7 40 -1 21 5 32 19 37 18 5 18 6 -4 7 -20
1 -21 3 -11 16 10 12 10 15 -1 15 -11 0 -11 2 1 10 9 6 11 10 3 10 -7 0 -10 7
-7 15 4 8 2 15 -2 15 -5 0 -9 12 -10 28 -1 15 -3 42 -6 60 -3 17 -2 32 3 32
10 0 -1 33 -14 41 -6 4 -12 28 -14 55 -1 26 -8 53 -14 60 -6 8 -8 21 -5 30 4
12 2 15 -9 10 -10 -4 -15 1 -16 17 0 12 -3 31 -5 42 -2 11 -6 34 -8 50 -1 17
-9 44 -16 60 -7 17 -14 32 -15 35 -1 3 -8 21 -17 40 -8 19 -16 40 -17 45 -1 6
-12 20 -23 33 -12 12 -18 22 -14 22 4 0 -16 19 -43 43 -27 23 -48 48 -46 54 3
7 1 12 -3 11 -16 -4 -51 14 -48 25 1 7 1 9 -1 5 -8 -14 -32 -8 -42 10 -5 9
-13 16 -18 16 -19 -3 -53 21 -49 33 7 17 -11 17 -17 1 -4 -10 -8 -9 -16 2 -6
8 -11 12 -11 8 0 -5 -9 1 -20 12 -12 12 -18 26 -14 33 5 9 4 9 -5 1 -10 -9
-19 -9 -38 1 -30 16 -63 50 -63 65 0 6 -4 8 -10 5 -5 -3 -10 -2 -10 3 0 5 -11
15 -25 22 -14 7 -25 17 -25 22 0 4 -13 22 -30 40 -16 17 -30 35 -30 40 0 5 -5
6 -12 2 -6 -4 -8 -3 -5 3 3 5 -12 29 -33 53 -40 44 -44 52 -41 79 2 7 -4 11
-11 9 -7 -3 -30 14 -51 36 -21 23 -43 40 -48 39 -5 -2 -9 1 -9 6 0 5 -10 12
-22 16 -13 4 -25 8 -28 9 -3 2 -17 6 -32 10 -16 5 -28 12 -28 16 0 4 -15 13
-32 20 -72 26 -106 45 -101 55 3 5 0 5 -7 -2 -10 -9 -18 -9 -34 -1 -24 14 -43
17 -71 11z m35 -72 c33 -7 51 -18 73 -45 42 -52 91 -78 160 -85 74 -7 90 -25
116 -131 13 -53 36 -105 81 -177 34 -57 66 -103 71 -103 5 0 9 -6 9 -14 0 -21
62 -79 109 -101 22 -11 41 -23 41 -27 0 -5 9 -8 20 -8 12 0 31 -6 43 -14 16
-11 50 -14 122 -13 94 2 103 0 130 -23 17 -14 46 -56 65 -93 34 -66 35 -73 35
-180 0 -104 2 -115 27 -157 67 -110 83 -178 64 -266 -4 -16 -8 -60 -11 -99 -2
-38 -16 -115 -30 -170 -70 -265 -72 -284 -40 -405 14 -52 32 -121 41 -154 8
-32 17 -63 21 -69 4 -6 6 -31 4 -56 -1 -26 3 -77 9 -116 15 -87 16 -111 6
-155 -7 -31 -42 -106 -56 -120 -26 -26 -34 -65 -36 -178 -1 -110 -4 -126 -26
-160 -13 -20 -30 -50 -38 -66 -26 -51 -63 -66 -165 -64 -90 1 -195 -22 -195
-43 0 -5 -6 -9 -14 -9 -19 0 -116 -81 -116 -97 0 -7 -7 -13 -15 -13 -8 0 -15
-4 -15 -9 0 -6 -29 -58 -65 -117 -35 -59 -67 -123 -70 -143 -9 -55 -34 -117
-54 -135 -9 -9 -41 -18 -70 -21 -65 -6 -120 -36 -160 -86 -28 -34 -36 -38 -96
-44 -84 -9 -95 -1 -95 73 0 98 -35 191 -100 265 -23 26 -48 47 -56 47 -8 0
-14 9 -14 20 0 11 -11 27 -25 36 -14 9 -25 20 -25 25 0 13 -46 59 -59 59 -6 0
-11 7 -11 15 0 9 -17 23 -37 33 -21 9 -40 20 -43 23 -11 14 -69 37 -123 48
-32 7 -70 19 -85 27 -15 8 -36 14 -47 14 -31 1 -92 33 -113 60 -11 14 -29 45
-42 70 -12 25 -25 47 -29 50 -3 3 -12 16 -19 30 -17 32 -69 90 -81 90 -5 0
-11 10 -14 22 -4 12 -9 20 -12 16 -3 -3 -29 16 -58 43 -29 27 -60 49 -70 49
-11 0 -15 4 -11 12 4 7 3 8 -4 4 -7 -4 -21 2 -33 13 -12 11 -26 18 -31 15 -4
-3 -14 -2 -20 2 -17 11 -52 17 -178 29 -103 10 -138 14 -182 24 -25 6 -56 8
-69 6 -13 -3 -41 -8 -61 -10 -20 -3 -47 -9 -60 -14 -13 -5 -51 -12 -84 -16
-56 -6 -64 -5 -83 16 -12 13 -24 35 -27 49 -14 66 -59 198 -77 228 -26 44 -60
77 -188 182 -23 19 -48 41 -55 48 -7 6 -17 12 -23 12 -6 0 -11 5 -11 10 0 6
-8 13 -17 17 -10 3 -29 14 -43 23 -48 32 -181 63 -295 69 -94 5 -116 10 -150
31 -48 30 -83 42 -190 65 -44 10 -97 24 -118 32 -54 22 -35 37 76 63 138 31
197 51 246 82 40 25 54 28 129 28 82 0 160 12 194 31 10 5 28 9 41 9 14 0 39
10 58 23 19 12 45 28 59 35 14 7 56 42 93 77 37 36 72 65 77 65 14 0 102 91
96 98 -3 3 3 11 14 19 11 8 20 22 20 32 0 9 4 21 9 26 5 6 19 43 30 83 11 41
28 90 38 110 16 33 22 37 63 40 25 2 77 -4 115 -13 39 -9 75 -15 80 -14 6 2
25 -1 43 -5 29 -7 130 5 182 21 8 3 52 6 96 8 87 3 223 38 252 65 9 9 34 26
55 39 20 12 37 26 37 30 0 4 11 13 24 21 16 8 22 18 19 28 -4 9 -2 13 4 9 6
-4 21 6 34 21 35 40 99 135 99 148 0 22 68 99 101 116 34 17 199 70 254 83 47
10 115 46 115 60 0 7 11 16 24 19 13 3 31 18 41 33 10 16 25 35 35 43 9 8 43
47 75 85 33 39 67 79 77 89 31 34 60 127 64 204 1 41 8 80 15 88 13 16 43 17
109 5z"/>
<path d="M4678 6072 c-22 -4 -22 -8 1 -46 13 -20 22 -59 26 -111 3 -44 8 -89
11 -100 7 -28 -45 -97 -87 -118 -19 -9 -55 -36 -81 -61 -44 -40 -48 -48 -48
-90 0 -85 -58 -157 -150 -186 -19 -7 -45 -17 -58 -23 -18 -9 -25 -8 -32 3 -7
11 -10 11 -10 2 0 -12 -40 -8 -65 7 -20 11 -41 10 -88 -5 -27 -9 -56 -14 -65
-12 -10 3 -26 -7 -40 -24 -13 -15 -19 -28 -13 -28 6 0 14 0 19 0 4 0 7 6 7 13
0 16 96 27 110 13 12 -13 13 -86 2 -103 -4 -7 -14 -10 -22 -6 -11 4 -15 -3
-16 -23 0 -25 -1 -26 -9 -9 -5 11 -9 14 -9 8 -1 -7 -6 -13 -12 -13 -7 0 -9 9
-6 21 4 14 2 19 -8 15 -17 -6 -28 36 -12 46 7 4 8 8 2 8 -5 0 -17 -5 -25 -11
-11 -8 -12 -12 -2 -16 6 -2 12 -13 12 -24 0 -20 39 -66 52 -62 12 4 10 -15 -2
-22 -5 -3 -10 -1 -10 4 0 6 -4 11 -10 11 -5 0 -10 -18 -10 -40 0 -41 7 -49 28
-28 9 9 12 8 12 -6 0 -9 -3 -15 -8 -12 -4 2 -7 -11 -6 -30 1 -19 -3 -37 -9
-41 -6 -3 -7 -1 -3 5 4 7 3 12 -3 12 -17 0 -23 -20 -23 -70 0 -38 -3 -46 -13
-37 -8 8 -10 21 -5 38 7 24 5 26 -21 25 -29 -1 -29 -1 -8 -17 15 -11 18 -18
10 -23 -6 -4 -11 -2 -11 3 0 6 -4 11 -10 11 -5 0 -10 -7 -10 -16 0 -11 -5 -14
-16 -10 -9 3 -21 6 -27 6 -7 0 -6 4 2 9 8 5 14 23 14 39 0 28 2 29 28 22 45
-13 105 44 79 75 -6 8 -10 33 -9 57 3 36 1 43 -16 46 -16 3 -18 1 -7 -9 6 -7
12 -36 12 -64 0 -59 -19 -85 -62 -85 -14 0 -36 -9 -49 -21 l-24 -21 23 5 c15
4 22 1 19 -6 -3 -7 -11 -10 -18 -8 -8 2 -25 6 -39 8 l-25 5 23 -17 c26 -19 30
-37 5 -28 -11 4 -14 3 -9 -5 4 -8 0 -12 -11 -12 -16 0 -18 -6 -15 -40 3 -28
-2 -47 -17 -68 -17 -25 -18 -31 -6 -36 8 -3 12 -12 9 -20 -3 -8 -1 -17 4 -20
5 -3 7 -17 4 -31 -2 -15 0 -25 7 -25 6 0 11 -5 11 -11 0 -5 -4 -8 -9 -4 -5 3
-13 -4 -16 -15 -5 -17 -10 -19 -21 -9 -8 6 -14 8 -14 3 0 -4 -5 -3 -12 4 -8 8
-8 15 2 26 7 9 10 26 6 41 -6 24 7 35 19 15 3 -5 10 -10 16 -10 5 0 0 9 -11
20 -11 11 -20 25 -20 31 0 5 -4 7 -10 4 -5 -3 -10 -21 -10 -39 0 -31 -45 -116
-70 -131 -21 -13 -88 -9 -112 7 -13 8 -35 18 -50 22 -15 3 -38 20 -50 36 -21
29 -48 40 -48 21 0 -14 -72 -1 -91 15 -8 8 -20 14 -24 14 -5 0 -20 12 -32 28
-18 20 -21 22 -16 7 3 -11 11 -26 17 -34 8 -11 8 -13 -1 -7 -7 4 -13 3 -13 -2
0 -17 12 -21 36 -12 15 6 24 6 24 -1 0 -5 -7 -12 -16 -16 -8 -3 -20 -17 -25
-30 -6 -16 -15 -23 -28 -21 -10 2 -29 -6 -42 -17 -26 -23 -17 -2 14 32 10 12
16 26 13 32 -4 5 -2 12 4 16 17 10 11 63 -7 75 -16 10 -16 11 -1 6 9 -3 19 2
22 10 8 22 8 24 -8 24 -16 0 -30 -27 -27 -52 3 -24 -15 -23 -21 0 -6 22 24 62
46 62 8 0 27 -16 42 -36 34 -45 72 -64 124 -64 23 0 60 -9 83 -21 53 -25 117
-26 159 -2 18 10 53 49 79 87 38 55 49 79 54 127 6 50 11 63 34 76 141 87 149
98 137 173 -5 35 -4 38 14 33 11 -3 20 -1 20 5 0 5 -9 12 -21 15 -14 4 -20 13
-19 29 3 30 -10 87 -21 94 -5 3 -9 -28 -9 -68 0 -133 -5 -145 -89 -228 -42
-42 -85 -95 -95 -118 -10 -23 -23 -39 -27 -36 -5 3 -9 -3 -9 -13 0 -20 -47
-66 -92 -89 -35 -18 -150 -23 -156 -6 -2 8 -10 8 -29 -1 -25 -11 -27 -11 -143
48 -29 14 -34 13 -116 -26 -46 -22 -71 -28 -98 -24 -20 3 -52 7 -71 10 -44 6
-67 20 -91 57 -10 16 -30 31 -44 34 -14 4 -36 13 -49 21 -22 14 -23 14 -18 0
3 -9 1 -18 -6 -21 -7 -3 -2 -3 9 -1 16 4 23 0 27 -16 4 -16 11 -20 26 -16 16
4 22 -2 31 -28 16 -48 42 -67 95 -69 25 0 45 -4 45 -7 0 -4 10 -7 23 -7 12 0
35 -4 50 -8 21 -5 36 -1 57 15 16 11 32 21 35 21 12 0 4 -39 -13 -60 -16 -20
-24 -22 -65 -16 -26 4 -50 13 -54 21 -6 10 -12 11 -23 4 -11 -8 -12 -12 -2
-16 6 -2 10 -9 7 -14 -4 -5 9 -7 27 -4 29 4 30 4 8 -4 -27 -10 -27 -10 8 -17
12 -2 22 0 22 5 0 5 11 4 25 -2 38 -18 30 -29 -15 -23 -26 3 -39 2 -37 -5 1
-6 -6 -13 -17 -14 -13 -3 -15 0 -8 7 6 6 8 16 5 24 -4 11 -10 10 -30 -3 -18
-12 -23 -22 -19 -39 5 -19 3 -22 -11 -17 -11 4 -14 3 -9 -5 4 -7 1 -12 -8 -12
-9 0 -16 8 -16 19 0 11 -3 26 -6 34 -4 10 2 15 22 15 14 0 30 6 35 13 11 17 7
32 -6 27 -6 -2 -9 -6 -7 -10 3 -11 -6 -10 -29 2 -15 8 -19 7 -19 -4 0 -8 -5
-16 -11 -18 -9 -3 -9 -9 -1 -24 11 -20 0 -51 -22 -66 -7 -4 -6 -15 4 -32 19
-37 31 -32 24 9 -6 40 -2 42 33 15 18 -14 21 -20 10 -20 -21 0 -32 -19 -18
-33 16 -16 14 -32 -3 -18 -11 9 -15 7 -19 -11 -4 -13 -1 -26 6 -30 9 -6 9 -8
-1 -8 -7 0 -11 -4 -8 -9 4 -5 -5 -4 -18 2 -14 7 -22 17 -18 26 4 11 0 13 -19
8 -13 -4 -30 -7 -37 -7 -7 0 -12 -6 -10 -12 4 -18 -23 -98 -34 -98 -4 0 -8 -7
-8 -15 0 -10 -10 -15 -29 -15 -16 0 -35 -8 -42 -17 -12 -15 -12 -16 4 -10 10
4 27 7 38 7 10 0 28 9 38 19 19 19 61 19 61 -1 0 -5 -4 -6 -10 -3 -5 3 -10 2
-10 -4 0 -6 -7 -8 -15 -5 -8 4 -15 1 -15 -5 0 -6 -7 -11 -16 -11 -8 0 -12 -5
-8 -11 4 -8 9 -8 17 0 6 6 15 11 21 11 5 0 6 -3 3 -7 -4 -3 -2 -12 4 -20 8 -9
8 -13 1 -13 -6 0 -13 4 -17 10 -3 5 -12 7 -21 3 -8 -3 -24 3 -36 13 -12 11
-18 13 -14 7 5 -9 2 -11 -8 -8 -52 16 -50 13 -32 40 9 14 13 25 9 25 -5 0 -14
-9 -21 -20 -12 -20 -38 -27 -44 -12 -1 5 -15 12 -30 16 -21 5 -28 3 -28 -9 0
-8 3 -14 8 -14 23 4 52 -2 48 -10 -3 -4 -1 -22 4 -39 9 -34 -3 -53 -23 -33 -6
6 -7 11 -1 11 5 0 10 10 11 23 l2 22 -19 -23 c-13 -15 -20 -18 -23 -10 -4 10
-6 10 -6 1 -1 -7 -10 -13 -21 -13 -27 0 -36 -25 -19 -58 7 -15 13 -31 14 -37
0 -5 4 -15 8 -22 4 -6 3 -14 -2 -17 -5 -3 -11 4 -14 15 -4 15 -11 20 -22 15
-9 -3 -25 -6 -36 -6 -10 0 -19 -4 -19 -8 0 -10 31 -9 48 2 9 5 13 3 11 -5 -1
-8 -1 -23 0 -34 1 -15 3 -17 10 -7 6 11 10 10 15 -3 5 -14 9 -15 22 -5 8 7 13
19 10 27 -3 8 -1 11 4 8 6 -3 10 -1 10 6 0 9 4 8 15 -1 11 -9 12 -17 4 -31 -5
-11 -14 -17 -18 -14 -5 3 -11 -1 -14 -8 -3 -8 4 -14 18 -15 13 -1 26 4 28 11
2 6 3 5 2 -4 -3 -23 13 -49 30 -49 8 0 14 -3 14 -7 -5 -29 2 -36 19 -20 20 19
37 23 27 7 -7 -11 8 -14 18 -3 4 3 -1 11 -10 18 -11 8 -13 14 -5 19 7 4 12 2
12 -4 0 -7 7 -10 15 -6 9 3 25 -4 36 -15 15 -15 24 -18 32 -10 8 8 7 11 -5 11
-9 0 -21 13 -26 30 -9 25 -8 31 8 40 28 15 30 13 30 -28 0 -21 6 -44 12 -50 8
-8 9 -15 3 -20 -6 -4 -11 -13 -13 -21 -2 -10 4 -12 22 -7 l26 6 -23 -22 c-17
-18 -25 -20 -34 -11 -7 6 -13 16 -13 22 0 6 -4 11 -10 11 -15 0 -12 -16 5 -30
8 -7 15 -18 15 -26 0 -7 8 -18 18 -23 15 -9 15 -10 -5 -11 -13 0 -23 -4 -23
-9 0 -14 33 -23 41 -10 4 6 11 9 17 5 6 -3 13 0 16 6 4 7 4 2 2 -11 -3 -13 2
-34 10 -47 9 -13 12 -29 8 -36 -6 -10 -4 -10 9 1 10 8 15 23 13 37 -3 17 0 22
15 21 12 -1 15 -5 9 -11 -6 -6 -10 -16 -10 -24 0 -12 3 -12 15 -2 9 7 19 10
23 6 4 -4 -1 -14 -11 -21 -13 -10 -15 -14 -5 -18 9 -4 8 -6 -4 -6 -9 -1 -19 5
-21 12 -3 6 -6 2 -6 -9 -1 -12 7 -25 16 -28 14 -6 14 -8 -5 -22 -12 -8 -22
-22 -22 -30 0 -8 -4 -14 -10 -14 -5 0 -10 -6 -10 -14 0 -8 -6 -21 -12 -28 -7
-8 -19 -24 -26 -37 -13 -21 -12 -23 3 -17 9 3 20 6 25 6 4 0 8 6 7 13 -1 35 5
47 23 47 11 0 17 -5 15 -12 -7 -19 7 -36 34 -39 15 -3 26 2 28 11 4 13 3 13
-6 0 -7 -10 -11 -11 -11 -2 0 6 -9 12 -20 12 -11 0 -20 4 -20 9 0 5 8 8 18 6
9 -1 11 0 5 2 -7 3 -13 13 -13 23 0 10 -3 25 -6 33 -4 11 1 13 21 10 19 -4 24
-10 20 -23 -8 -26 5 -50 28 -50 16 0 18 -3 9 -12 -7 -7 -12 -16 -12 -22 0 -5
9 0 19 11 11 12 39 24 62 28 37 6 45 4 61 -15 10 -12 18 -33 18 -46 0 -14 7
-27 15 -30 8 -4 15 -13 15 -21 0 -8 -16 3 -36 25 -44 49 -71 57 -124 36 -23
-9 -51 -13 -65 -10 -43 11 -90 -19 -114 -72 -14 -33 -20 -40 -21 -24 0 14 -6
22 -17 21 -11 0 -13 -3 -5 -6 13 -5 17 -33 4 -33 -4 0 -13 5 -20 12 -7 7 -12
8 -12 2 0 -6 5 -15 12 -22 9 -9 9 -12 -2 -13 -8 -1 -18 -1 -22 0 -4 0 -5 -6
-2 -13 5 -12 10 -12 32 -1 15 8 35 16 45 20 11 3 21 13 24 23 7 27 67 63 115
68 97 10 112 8 164 -24 58 -36 77 -38 119 -11 51 32 78 41 118 37 20 -2 37 0
37 4 0 5 14 8 30 8 17 0 30 -4 30 -10 0 -5 5 -10 11 -10 5 0 7 5 4 10 -3 6 3
10 14 10 11 0 23 -5 26 -10 4 -6 14 -8 23 -6 23 7 122 -75 122 -101 0 -7 4
-13 10 -13 5 0 18 -19 28 -42 11 -24 31 -54 45 -67 15 -13 24 -29 20 -34 -4
-6 0 -8 9 -5 9 4 26 -5 42 -22 32 -34 60 -117 42 -124 -7 -3 -7 -5 2 -5 8 -1
12 -21 12 -66 0 -37 4 -65 10 -65 6 0 9 -5 8 -11 -2 -6 3 -14 10 -16 14 -6 16
13 2 22 -5 3 -10 13 -10 22 0 12 3 13 14 4 11 -9 15 -9 19 1 4 10 10 8 21 -6
16 -19 16 -19 16 5 0 17 3 20 9 10 9 -15 31 -7 31 11 0 6 -7 20 -17 30 -15 17
-15 18 4 18 21 0 38 -25 28 -41 -4 -5 1 -6 9 -3 9 3 21 -5 31 -20 10 -14 25
-26 34 -26 14 0 14 -2 1 -10 -10 -7 -11 -10 -2 -10 7 0 15 8 19 18 3 9 15 27
26 39 12 14 17 29 13 40 -4 9 -4 14 0 10 9 -9 54 52 54 74 0 12 6 16 21 12 12
-4 25 0 31 8 8 11 9 10 4 -4 -3 -10 -6 -24 -6 -31 0 -9 -9 -12 -25 -8 -15 2
-25 0 -25 -7 0 -8 14 -10 45 -5 29 4 45 2 45 -5 0 -6 -5 -11 -12 -11 -6 0 -4
-6 7 -13 13 -10 15 -16 6 -21 -6 -4 -9 -12 -6 -17 4 -5 2 -9 -2 -9 -5 0 -13
10 -18 23 -14 32 -65 32 -89 -1 -18 -24 -18 -24 3 -12 36 19 73 8 97 -27 19
-29 22 -31 27 -13 3 11 1 20 -3 20 -4 0 -6 9 -3 20 3 11 10 20 17 20 6 0 4 5
-4 10 -12 8 -11 10 7 10 20 0 25 -13 11 -35 -7 -12 12 -41 27 -40 6 1 25 5 42
9 23 5 42 3 64 -8 41 -20 41 -21 33 9 -4 16 -2 25 6 25 6 0 9 -4 5 -9 -3 -5
-1 -12 5 -16 5 -3 10 -1 10 5 0 6 5 8 11 5 6 -4 8 -10 5 -13 -4 -3 3 -16 15
-28 17 -18 19 -26 10 -42 -15 -29 -14 -61 4 -78 8 -9 15 -20 15 -26 0 -6 -8
-1 -19 10 -23 27 -31 28 -31 2 0 -11 7 -20 15 -20 13 0 12 -4 -4 -21 -11 -12
-17 -28 -14 -35 3 -8 -2 -23 -11 -33 -10 -11 -14 -25 -10 -36 5 -13 4 -16 -4
-11 -7 4 -12 1 -12 -8 0 -9 6 -16 14 -16 8 0 21 -3 30 -6 11 -4 16 -1 16 10 0
9 -7 16 -15 16 -19 0 -19 11 0 36 13 17 14 17 15 2 0 -10 5 -18 10 -18 13 0
13 27 0 35 -17 11 -11 54 9 65 32 16 37 12 33 -25 -2 -19 -8 -35 -12 -35 -5 0
-6 -8 -4 -17 5 -20 59 -29 69 -13 4 6 11 10 16 10 6 0 8 -4 5 -9 -3 -5 1 -14
9 -21 8 -7 12 -17 8 -23 -4 -6 0 -8 10 -4 14 5 15 3 5 -12 -13 -21 -3 -56 13
-45 6 3 16 0 21 -7 8 -12 9 -11 5 1 -2 8 -12 14 -21 14 -9 -1 -16 4 -16 12 0
8 5 14 10 14 6 0 10 7 10 15 0 8 5 15 10 15 6 0 10 -9 10 -19 0 -11 7 -27 16
-36 13 -12 14 -19 4 -30 -7 -8 -16 -13 -20 -10 -5 3 -12 0 -16 -6 -5 -9 1 -10
23 -6 27 5 30 4 26 -17 -3 -13 0 -27 6 -30 7 -5 11 6 12 31 0 21 3 32 6 26 2
-7 11 -13 19 -13 9 0 12 4 9 10 -3 6 1 7 10 4 13 -5 14 -2 6 17 -9 26 2 69 19
69 15 0 12 -11 -7 -32 -9 -10 -11 -18 -5 -18 6 0 14 5 17 11 4 6 14 8 23 4 8
-3 25 3 36 13 23 21 63 34 68 22 2 -4 10 -1 18 8 13 14 12 15 -2 9 -11 -4 -18
0 -21 11 -4 15 -5 15 -6 0 -1 -11 -7 -15 -23 -10 -16 4 -27 -2 -45 -24 -15
-19 -23 -24 -23 -14 0 9 6 22 13 29 10 10 9 12 -3 11 -8 -1 -24 -2 -34 -1 -26
1 -9 19 24 25 14 2 24 9 23 15 -2 5 4 8 12 5 8 -4 15 -1 15 5 0 7 8 6 23 -4
22 -14 24 -14 36 11 7 17 17 24 26 20 18 -6 20 5 4 21 -8 8 -8 17 0 31 15 27
14 39 -1 24 -16 -16 -31 -15 -22 1 5 9 3 9 -7 -1 -9 -8 -10 -15 -4 -20 14 -10
19 -52 6 -52 -6 0 -7 8 -4 18 6 14 4 15 -9 4 -13 -10 -18 -8 -31 12 -15 23
-15 24 6 19 21 -4 21 -4 2 8 -19 13 -19 13 5 19 22 5 44 43 23 39 -33 -6 -48
23 -18 35 16 6 10 36 -7 36 -6 0 -8 -7 -4 -15 3 -8 1 -15 -4 -15 -6 0 -10 9
-10 20 0 11 5 20 10 20 6 0 20 9 32 20 21 19 21 20 2 20 -11 0 -27 -9 -37 -20
-14 -17 -21 -19 -38 -10 -12 7 -18 18 -15 26 3 8 1 14 -5 14 -6 0 -7 4 -4 10
10 17 43 -11 37 -32 -4 -18 -2 -17 20 4 14 13 30 32 36 43 11 20 11 20 12 -2
0 -24 27 -37 54 -27 12 5 15 2 10 -10 -8 -22 12 -20 22 2 4 9 7 20 6 23 -1 4
8 5 18 2 11 -3 26 0 34 6 7 6 22 8 31 4 14 -5 17 -3 12 10 -3 9 -2 17 3 17 5
0 9 -11 8 -24 -1 -14 -6 -22 -10 -20 -4 3 -8 1 -8 -3 0 -5 -14 -8 -32 -8 -17
0 -33 -5 -35 -11 -2 -7 12 -10 41 -9 25 0 43 -2 40 -6 -2 -4 0 -11 6 -14 6 -4
10 -3 9 2 -1 4 -1 20 0 36 1 34 21 36 21 1 0 -17 4 -24 13 -20 6 3 20 9 30 12
24 9 21 22 -5 27 l-23 4 23 2 c12 0 22 8 22 15 0 26 67 69 95 62 14 -4 25 -13
25 -20 0 -8 7 -17 16 -20 21 -8 24 -8 24 5 0 5 -4 8 -9 5 -5 -3 -12 2 -15 12
-11 30 -36 68 -36 55 0 -7 -8 -13 -18 -13 -10 0 -24 -6 -31 -12 -11 -11 -11
-9 -1 11 6 13 21 26 33 29 20 5 20 6 1 13 -15 6 -16 8 -2 8 20 1 48 -25 48
-45 0 -14 17 -19 52 -16 11 1 20 -8 24 -22 4 -19 12 -24 37 -22 24 1 34 -5 44
-24 13 -25 14 -25 11 10 -3 32 -6 35 -33 36 -39 0 -55 10 -55 34 0 15 18 30
36 30 11 0 2 -24 -13 -36 -15 -11 -15 -13 -3 -14 17 0 42 14 41 24 -1 3 2 5 7
4 4 -2 6 -8 6 -15 -1 -6 5 -14 14 -18 12 -4 14 2 9 35 -3 22 -2 38 2 36 4 -3
13 -1 21 4 12 7 12 12 2 22 -15 15 -16 28 -2 28 6 0 9 -3 8 -7 -3 -15 14 -43
22 -38 5 3 11 1 14 -4 4 -5 2 -12 -3 -15 -5 -4 -12 -2 -16 4 -4 6 -11 5 -20
-3 -11 -10 -11 -15 2 -29 13 -14 19 -15 30 -6 11 9 17 9 25 -3 7 -10 8 -6 5
15 -4 22 0 30 14 33 24 7 24 8 -2 50 -26 42 -29 122 -5 158 9 13 30 28 47 32
36 10 38 25 4 36 -36 12 -72 -14 -97 -69 -18 -43 -19 -47 -3 -97 9 -29 21 -60
26 -70 13 -24 7 -30 -15 -14 -9 7 -18 22 -19 35 0 12 -5 22 -9 22 -4 0 -5 7
-2 15 6 16 -7 21 -20 8 -12 -13 -56 -10 -56 3 0 7 -3 20 -7 30 -4 11 -3 15 4
11 7 -5 9 0 6 11 -2 10 3 24 11 31 19 16 21 29 4 27 -7 0 -14 4 -15 9 -1 6 5
9 13 7 8 -2 14 3 14 9 0 7 12 2 27 -12 22 -20 25 -21 19 -5 -5 14 3 28 29 51
21 20 35 42 35 56 0 32 10 43 39 47 20 2 22 0 11 -13 -7 -8 -19 -15 -26 -15
-8 0 -14 -4 -14 -9 0 -5 9 -7 19 -4 14 3 23 -3 33 -24 8 -15 20 -27 26 -25 7
1 12 -5 12 -14 0 -14 3 -14 15 -4 29 24 17 46 -23 41 -9 -2 -11 6 -6 25 6 22
4 26 -9 21 -11 -4 -15 0 -14 14 1 10 8 19 15 19 12 0 12 3 2 15 -7 8 -9 15 -4
15 5 0 1 7 -10 15 -13 10 -24 11 -37 4 -12 -6 -19 -6 -19 0 0 5 5 11 12 13 7
3 9 12 4 24 -7 18 -8 18 -20 -5 -10 -18 -15 -20 -20 -10 -5 11 -7 11 -12 1 -6
-13 -24 -7 -24 9 0 6 5 7 12 3 8 -5 9 -2 5 9 -8 21 -3 21 18 0 16 -15 17 -15
15 3 -1 10 -1 30 0 44 1 21 3 22 9 7 6 -17 9 -16 34 7 24 22 26 23 24 6 -2
-11 -6 -23 -10 -26 -15 -15 -6 -45 24 -78 17 -20 28 -40 25 -45 -5 -7 14 -21
30 -21 2 0 -7 23 -22 52 -19 38 -25 60 -20 86 3 19 1 43 -5 53 -6 13 -6 19 1
19 17 0 11 43 -10 70 -11 14 -20 34 -20 45 0 12 -21 63 -46 115 -48 98 -75
166 -69 172 2 2 6 15 9 30 2 15 25 66 49 115 25 48 51 106 57 128 7 22 17 45
22 52 6 7 13 27 17 46 7 28 5 33 -11 34 -10 1 -16 -2 -13 -8 8 -13 -9 -11 -22
2 -6 6 -17 8 -24 3 -9 -5 -5 -10 12 -17 15 -6 19 -11 11 -14 -22 -9 -43 17
-31 38 5 11 14 17 19 14 22 -13 15 12 -8 29 l-25 19 6 -22 c3 -13 3 -20 0 -17
-4 3 -12 1 -20 -5 -9 -9 -13 -8 -13 0 0 6 6 11 13 11 8 0 7 4 -3 10 -10 6 -11
10 -2 10 18 0 15 18 -8 43 -19 20 -20 22 -3 29 29 11 33 9 33 -12 0 -18 1 -18
23 3 16 15 20 26 14 34 -5 7 -7 20 -3 28 3 9 -3 20 -14 27 -29 19 -24 29 13
27 17 -1 39 2 48 5 10 4 20 3 24 -3 10 -17 25 -13 19 4 -4 8 -12 15 -20 15 -8
0 -14 4 -14 10 0 5 7 7 15 4 8 -4 15 -1 15 5 0 6 -5 11 -11 11 -5 0 -7 5 -4
10 9 15 -20 40 -45 40 -28 0 -76 51 -83 88 -6 31 8 98 25 119 13 16 3 43 -14
42 -10 0 -10 -2 0 -6 17 -7 15 -23 -3 -23 -8 0 -17 -11 -21 -25 -3 -14 -9 -25
-13 -25 -7 0 -13 -38 -14 -87 0 -23 9 -45 30 -70 27 -33 36 -38 71 -36 44 2
62 -17 36 -37 -10 -9 -14 -9 -14 -1 0 6 5 11 12 11 6 0 8 3 5 6 -4 4 -13 1
-21 -5 -8 -7 -28 -11 -43 -9 -34 4 -99 58 -82 69 6 3 7 8 3 10 -17 7 -45 69
-37 82 4 6 6 21 4 32 -2 16 0 17 11 7 18 -14 32 -4 18 14 -8 8 -7 16 3 26 7 7
12 18 10 25 -2 6 1 14 6 18 16 9 13 32 -3 32 -8 0 -12 -6 -9 -14 4 -9 0 -11
-13 -7 -16 6 -17 5 -6 -7 13 -15 16 -29 5 -29 -5 0 -14 12 -21 28 -11 23 -10
29 5 40 10 7 26 11 36 8 19 -5 21 2 8 23 -7 10 -13 11 -31 1 -12 -6 -33 -9
-47 -5 -14 3 -22 2 -19 -4 3 -5 -5 -4 -18 2 -13 7 -22 15 -20 19 3 5 1 8 -5 8
-5 0 -13 -5 -16 -10 -4 -6 -11 -7 -17 -4 -6 4 1 13 18 22 25 13 29 13 38 -1 9
-13 12 -13 33 0 14 9 23 25 23 40 0 18 4 24 15 20 21 -9 27 7 11 28 -12 17
-15 15 -32 -24 l-18 -42 -71 5 c-62 4 -74 2 -88 -15 -23 -26 -49 -24 -85 6
-20 16 -29 34 -30 55 l-1 31 32 -31 32 -31 90 7 c49 3 98 11 108 16 10 5 27
28 38 51 10 23 19 36 19 30 0 -7 5 -13 12 -13 6 0 3 8 -7 20 -17 19 -18 19
-38 -8 -28 -35 -35 -40 -81 -53 -31 -8 -41 -8 -47 3 -7 11 -9 11 -9 -1 0 -10
-9 -12 -37 -6 -41 7 -103 41 -103 56 0 5 -4 9 -10 9 -5 0 -43 16 -82 36 -86
42 -120 84 -113 138 3 19 1 37 -4 41 -5 3 -12 23 -16 45 -7 42 -24 64 -26 33
-1 -10 0 -25 1 -33 6 -39 4 -42 -29 -45 -22 -2 -29 0 -20 6 10 6 8 9 -8 9 -14
0 -23 -6 -23 -15 0 -8 -4 -15 -10 -15 -5 0 -10 5 -10 11 0 7 -10 9 -27 5 -20
-5 -24 -4 -13 3 12 9 12 11 -3 17 -9 3 -14 10 -11 15 3 5 11 6 17 3 8 -5 7 -2
-1 7 -10 11 -16 11 -33 1 -20 -13 -39 -9 -39 9 0 5 6 9 13 8 27 -3 37 2 37 19
0 10 5 23 11 29 7 7 8 17 2 28 -9 16 -10 16 -17 0 -3 -9 -3 -21 0 -27 3 -5 -3
-12 -15 -15 -12 -3 -21 -10 -22 -17 -1 -6 -4 0 -8 14 -9 31 -1 51 10 24 6 -16
8 -15 8 8 1 30 -14 46 -23 23 -3 -8 -13 -15 -23 -15 -13 0 -14 3 -5 12 7 7 12
16 12 20 0 11 -67 10 -74 -1 -3 -4 7 -6 22 -5 15 2 20 1 12 -3 -21 -9 -40 -30
-40 -44 0 -8 -5 -8 -17 2 -15 12 -16 12 -10 -3 3 -10 2 -20 -3 -23 -6 -4 -10
4 -11 17 0 22 -1 22 -9 3 -4 -11 -4 -24 1 -29 5 -6 9 -19 8 -30 0 -17 -3 -15
-11 7 -8 22 -13 26 -24 16 -11 -9 -14 -8 -14 5 0 9 4 16 8 16 4 0 15 16 24 35
20 44 0 48 -24 5 -18 -32 -37 -37 -69 -20 -15 8 -19 7 -19 -4 0 -10 -6 -13
-16 -9 -11 4 -15 0 -14 -13 4 -32 1 -37 -15 -24 -10 9 -15 9 -15 1 0 -6 4 -11
9 -11 5 0 12 -10 16 -22 l8 -23 4 23 c2 12 12 22 21 23 11 0 12 3 5 6 -7 2
-13 9 -13 14 0 4 7 6 15 3 10 -4 15 0 16 12 0 11 3 14 6 7 2 -7 12 -13 21 -13
22 0 46 -36 31 -46 -6 -3 -9 -14 -6 -24 3 -13 0 -16 -14 -13 -10 3 -18 8 -17
12 0 3 0 12 -1 19 -1 17 -43 12 -49 -7 -3 -10 2 -11 18 -6 15 5 20 4 16 -4 -4
-6 -14 -11 -23 -11 -14 0 -13 -4 5 -23 12 -13 19 -27 15 -31 -4 -4 -1 -11 7
-17 12 -7 11 -10 -7 -15 -13 -4 -23 -10 -23 -14 0 -5 -3 -15 -6 -23 -3 -10 2
-18 16 -22 15 -5 19 -10 12 -17 -6 -6 -8 -17 -5 -24 3 -9 -2 -14 -16 -14 -14
0 -19 -5 -15 -15 4 -8 1 -22 -6 -30 -10 -12 -9 -15 4 -15 9 0 16 7 16 15 0 8
5 15 10 15 6 0 10 -14 10 -30 0 -28 -2 -30 -27 -24 -16 4 -33 10 -38 15 -15
11 -85 6 -86 -6 -1 -5 -1 -14 0 -19 2 -10 -29 -46 -40 -46 -4 0 -5 9 -2 20 3
11 10 20 16 20 20 0 -28 28 -53 31 -14 2 -27 7 -30 10 -3 4 -14 9 -26 13 -16
5 -23 0 -32 -18 -6 -14 -22 -32 -36 -41 -23 -15 -28 -15 -72 4 -26 12 -54 31
-62 42 -8 11 -25 24 -38 29 -31 12 -31 30 1 30 14 0 25 -4 25 -10 0 -5 6 -10
13 -10 8 0 22 -9 31 -19 35 -38 81 -36 136 5 8 7 39 17 68 23 29 6 64 18 77
27 51 33 81 143 52 188 -15 22 -15 24 3 29 10 3 21 1 24 -4 2 -5 3 -4 2 3 -1
7 -13 15 -27 19 -15 5 -18 7 -7 8 16 1 45 22 84 59 7 6 24 12 38 12 16 0 42
14 66 36 48 43 61 93 37 136 -9 16 -14 35 -11 43 4 8 1 15 -5 15 -6 0 -11 -5
-11 -12 0 -6 -2 -9 -5 -6 -9 9 6 56 18 61 7 2 4 3 -5 2 -12 -2 -17 4 -17 24 1
14 -2 40 -5 56 l-6 30 10 -31 c5 -17 19 -39 31 -50 l21 -19 -5 34 c-3 19 -12
38 -19 43 -10 8 -9 9 4 5 9 -3 19 0 21 7 4 10 -1 12 -14 9 -10 -3 -29 1 -41 9
-13 8 -31 12 -40 10z m139 -478 c2 -5 -6 -10 -17 -11 -20 -2 -26 8 -13 21 9 8
26 3 30 -10z m265 -101 c-5 -10 -7 -23 -5 -29 2 -7 -5 -10 -22 -7 -28 6 -34
23 -7 24 10 0 12 3 4 6 -17 7 -5 23 19 23 16 0 18 -4 11 -17z m44 -30 c-2 -94
48 -150 124 -140 41 5 101 -22 99 -45 0 -10 -2 -10 -6 0 -4 10 -10 9 -27 -7
-24 -23 -53 -14 -43 14 4 9 11 14 16 10 6 -3 7 -13 4 -22 -4 -11 -3 -14 5 -9
15 9 16 33 2 41 -5 3 -20 -1 -32 -9 -29 -20 -49 -20 -109 1 -46 17 -69 43 -69
79 0 8 -4 12 -10 9 -15 -9 -12 -71 5 -85 8 -6 30 -12 49 -13 32 -1 33 -2 15
-15 -24 -16 -25 -36 -1 -28 15 5 15 5 1 -6 -9 -7 -18 -20 -22 -28 -3 -8 -6 0
-6 18 -1 19 -5 31 -11 27 -5 -3 -10 -1 -10 4 0 18 -28 12 -33 -6 -3 -12 -5 -9
-6 8 0 14 -7 31 -13 37 -10 10 -10 17 0 33 11 18 11 24 -4 40 -13 15 -14 19
-3 19 8 1 27 11 43 24 23 19 26 27 18 42 -7 12 -7 25 -1 36 17 31 25 20 25
-29z m-66 -39 c0 -8 -4 -12 -10 -9 -5 3 -10 10 -10 16 0 5 5 9 10 9 6 0 10 -7
10 -16z m-53 -105 c-4 -16 -3 -18 9 -8 11 9 14 8 14 -9 0 -11 6 -22 13 -25 9
-3 9 -7 -2 -20 -10 -13 -18 -14 -32 -6 -11 5 -24 7 -29 4 -6 -3 -7 1 -4 10 4
9 13 14 20 11 20 -8 17 4 -3 20 -11 8 -13 13 -5 14 6 0 12 7 12 15 0 8 3 15 6
15 4 0 4 -9 1 -21z m-302 -19 c3 -5 2 -10 -4 -10 -5 0 -13 5 -16 10 -3 6 -2
10 4 10 5 0 13 -4 16 -10z m-517 -58 c12 -2 22 -8 22 -13 0 -6 5 -7 12 -3 7 5
9 2 6 -8 -5 -13 3 -16 43 -17 27 0 49 3 49 8 0 4 11 13 25 19 22 10 25 9 25
-8 0 -13 -5 -18 -15 -14 -8 4 -15 2 -15 -4 0 -5 -14 -15 -31 -23 -28 -11 -33
-10 -45 6 -16 21 -19 8 -4 -15 5 -8 17 -15 26 -15 10 0 19 -5 21 -12 3 -7 -4
-9 -18 -6 -18 5 -20 3 -15 -15 4 -11 2 -23 -4 -27 -8 -5 -11 2 -9 21 2 21 -6
39 -32 65 -19 20 -40 34 -47 32 -6 -3 -10 -8 -8 -12 6 -10 -12 -37 -19 -29 -4
3 -1 16 5 28 10 18 8 24 -11 41 -19 16 -20 21 -8 35 12 15 14 14 19 -7 4 -15
14 -25 28 -27z m192 27 c0 -6 -4 -7 -10 -4 -5 3 -10 11 -10 16 0 6 5 7 10 4 6
-3 10 -11 10 -16z m350 2 c0 -11 -30 -19 -47 -14 -24 8 -13 23 17 23 17 0 30
-4 30 -9z m524 -15 c-3 -9 -15 -16 -25 -16 -10 0 -18 -3 -18 -7 3 -21 -2 -33
-12 -28 -6 4 -8 14 -5 22 4 10 2 13 -8 10 -10 -4 -13 -1 -9 9 4 10 13 14 28
10 14 -4 28 0 35 9 15 19 23 14 14 -9z m-899 -6 c-3 -5 -12 -10 -18 -10 -7 0
-6 4 3 10 19 12 23 12 15 0z m62 -6 c-3 -3 -12 -4 -19 -1 -8 3 -5 6 6 6 11 1
17 -2 13 -5z m873 -8 c0 -2 -7 -6 -15 -10 -8 -3 -15 -1 -15 4 0 6 7 10 15 10
8 0 15 -2 15 -4z m-50 -26 c0 -5 -4 -10 -10 -10 -5 0 -10 5 -10 10 0 6 5 10
10 10 6 0 10 -4 10 -10z m118 -19 c29 -25 28 -36 -5 -38 -15 0 -29 -6 -31 -12
-2 -6 -8 -9 -13 -6 -5 4 0 16 11 27 24 26 26 42 5 34 -8 -3 -15 -1 -15 4 0 16
25 11 48 -9z m-991 -12 c6 -6 9 -18 6 -26 -4 -11 -8 -10 -19 4 -22 30 -12 47
13 22z m1153 -35 c0 -12 -7 -15 -25 -12 -28 6 -32 -1 -12 -21 10 -11 6 -12
-23 -6 -19 4 -42 14 -50 22 -13 14 -12 15 10 10 14 -3 36 1 50 8 33 19 50 18
50 -1z m90 -24 c0 -5 -4 -10 -10 -10 -5 0 -10 5 -10 10 0 6 5 10 10 10 6 0 10
-4 10 -10z m-156 -31 c-3 -5 0 -9 5 -9 6 0 11 -9 11 -20 0 -11 -5 -20 -11 -20
-5 0 -7 5 -4 10 3 6 -1 10 -10 10 -11 0 -15 5 -11 15 5 15 -4 19 -34 16 -12
-1 -12 0 -2 7 16 11 64 3 56 -9z m200 -34 c-6 -16 -24 -21 -24 -7 0 11 11 22
21 22 5 0 6 -7 3 -15z m-1543 -26 c-2 -8 -4 -20 -4 -26 0 -7 -9 -13 -19 -13
-12 0 -18 7 -17 23 0 12 3 16 6 10 2 -7 9 -13 14 -13 14 0 11 27 -3 34 -7 3
-4 4 7 3 12 -2 18 -9 16 -18z m1554 11 c-3 -5 -1 -10 6 -10 8 0 8 -4 -1 -15
-9 -11 -16 -13 -23 -6 -7 7 -6 15 3 26 14 17 25 21 15 5z m-1585 -80 c0 -5 -5
-10 -11 -10 -5 0 -7 5 -4 10 3 6 8 10 11 10 2 0 4 -4 4 -10z m1570 -15 c-13
-15 -5 -55 11 -55 5 0 9 -7 9 -17 0 -9 -3 -13 -7 -10 -3 4 -12 2 -19 -4 -8 -7
-14 -6 -19 2 -4 6 -1 15 6 20 10 6 3 9 -21 9 -24 0 -31 3 -21 9 7 5 10 14 6
20 -12 21 3 38 35 39 26 1 29 -2 20 -13z m-1783 -86 c6 -6 9 -18 6 -25 -6 -17
9 -18 26 -1 11 10 12 9 7 -1 -10 -18 12 -42 32 -35 15 4 15 3 2 -6 -19 -13
-50 -14 -50 -1 0 6 -10 5 -25 -2 -15 -7 -24 -17 -21 -25 3 -8 -2 -13 -14 -13
-27 0 -25 12 6 39 15 13 23 28 20 37 -3 8 -9 21 -12 29 -7 18 7 20 23 4z
m1833 -39 c0 -5 -5 -10 -11 -10 -5 0 -7 5 -4 10 3 6 8 10 11 10 2 0 4 -4 4
-10z m14 -26 c9 -3 13 -10 10 -15 -3 -5 -10 -7 -15 -4 -5 4 -9 -3 -9 -14 0
-12 -4 -21 -9 -21 -5 0 -8 12 -5 26 4 21 1 25 -10 21 -9 -4 -18 -2 -21 3 -7
11 34 13 59 4z m-1824 -24 c0 -5 -7 -10 -15 -10 -8 0 -15 5 -15 10 0 6 7 10
15 10 8 0 15 -4 15 -10z m1880 -10 c0 -5 -5 -10 -11 -10 -5 0 -7 5 -4 10 3 6
8 10 11 10 2 0 4 -4 4 -10z m-1910 -24 c0 -3 -4 -8 -10 -11 -5 -3 -10 -1 -10
4 0 6 5 11 10 11 6 0 10 -2 10 -4z m-618 -48 c-7 -7 -12 -22 -12 -34 0 -11
-13 -35 -30 -52 -16 -17 -28 -37 -26 -44 1 -7 1 -10 -1 -7 -2 4 -13 5 -23 2
-11 -3 -17 -9 -14 -14 3 -5 -1 -16 -9 -24 -13 -12 -15 -9 -20 22 -7 43 -8 43
35 53 18 3 32 12 30 19 -1 6 4 14 12 17 8 3 20 21 26 40 7 20 18 34 28 34 12
0 13 -3 4 -12z m162 -52 c-7 -18 -32 -28 -39 -16 -4 6 -15 10 -26 10 -16 0
-19 -5 -14 -22 5 -20 4 -21 -5 -5 -16 25 -3 38 35 35 19 -1 37 1 41 5 11 11
14 8 8 -7z m63 -16 c14 -17 35 -30 47 -30 29 0 39 -10 25 -27 -9 -10 -8 -13 2
-13 8 0 6 -5 -6 -14 -16 -12 -21 -11 -33 1 -8 8 -21 12 -29 9 -9 -4 -13 -1
-10 6 2 7 14 12 26 11 25 -3 28 12 4 22 -10 3 -19 5 -19 3 -4 -8 -44 37 -44
49 0 20 9 16 37 -17z m-32 -20 c3 -6 -1 -7 -10 -4 -10 4 -14 1 -12 -7 2 -8 2
-11 0 -6 -3 4 -9 7 -14 7 -6 0 -8 -4 -4 -9 3 -5 1 -12 -5 -16 -5 -3 -10 -1
-10 4 0 6 -5 11 -11 11 -6 0 -9 -7 -5 -15 3 -8 1 -15 -4 -15 -6 0 -10 2 -10 4
0 2 -3 11 -6 20 -8 22 78 47 91 26z m373 -15 c8 -8 -8 -55 -19 -55 -8 0 -7 5
1 15 12 14 7 20 -14 16 -5 -1 -6 5 -3 14 4 8 1 15 -4 15 -7 0 -9 -11 -6 -26 3
-20 -4 -34 -34 -65 -43 -43 -42 -43 -70 -28 -15 7 -24 7 -35 -2 -10 -8 -14 -8
-14 0 0 6 5 11 12 11 6 0 8 3 4 8 -4 4 -13 7 -19 7 -7 0 -12 7 -12 15 0 8 -7
15 -16 14 -8 -1 -16 6 -16 16 -1 14 6 13 49 -9 46 -23 53 -24 77 -10 14 8 33
29 41 47 13 29 19 32 44 27 16 -3 32 -7 34 -10z m-401 -41 c-3 -3 -12 -4 -19
-1 -8 3 -5 6 6 6 11 1 17 -2 13 -5z m353 -49 c0 -8 -2 -15 -4 -15 -2 0 -6 7
-10 15 -3 8 -1 15 4 15 6 0 10 -7 10 -15z m-162 -17 c-5 -15 -23 -11 -26 6 -2
11 2 14 13 10 9 -4 14 -11 13 -16z m152 -21 c0 -22 -30 -57 -49 -57 -10 0 -24
7 -31 15 -7 8 -20 15 -29 15 -13 0 -14 2 -2 9 9 6 22 6 33 0 19 -10 58 4 58
21 0 6 5 10 10 10 6 0 10 -6 10 -13z m2061 -36 c-6 -11 -11 -29 -11 -41 0 -13
-8 -24 -20 -27 -11 -3 -17 -9 -15 -14 3 -4 13 -5 22 -2 13 5 12 1 -5 -17 -12
-13 -22 -30 -22 -38 0 -12 -3 -12 -16 -1 -14 12 -14 14 1 25 9 7 12 15 6 18
-5 4 -14 -2 -20 -11 -6 -10 -11 -13 -11 -6 0 6 13 22 28 35 31 26 24 46 -13
40 -20 -3 -20 -3 0 13 12 9 21 12 23 5 8 -24 24 -8 19 19 -5 25 -3 30 16 33
27 4 32 -5 18 -31z m-2070 -35 c-8 -10 -9 -16 -1 -21 6 -3 8 -11 5 -16 -4 -5
-2 -9 4 -9 6 0 4 -11 -4 -26 -10 -20 -11 -31 -3 -44 12 -18 4 -55 -9 -47 -5 3
-8 20 -7 39 1 22 -4 35 -15 40 -13 5 -13 7 3 7 20 1 20 1 0 16 -17 13 -17 14
-1 15 9 0 17 4 17 9 0 6 -9 8 -19 6 -11 -2 -25 3 -32 11 -9 11 -7 14 14 14 14
0 29 5 32 10 3 6 11 10 17 10 7 0 6 -5 -1 -14z m-849 -34 c-7 -20 -31 -46 -37
-41 -11 11 9 55 25 56 14 1 17 -3 12 -15z m2850 -93 c5 -3 0 -13 -9 -21 -15
-14 -22 -14 -42 -4 -23 13 -23 13 -2 19 11 3 21 1 21 -5 0 -5 5 -6 10 -3 7 4
5 14 -5 28 -8 12 -15 31 -15 42 0 14 5 10 17 -15 10 -19 21 -38 25 -41z
m-3027 -30 c4 -11 4 -23 1 -26 -3 -4 -6 1 -6 10 0 10 -5 16 -11 15 -6 -2 -14
3 -16 10 -3 6 2 12 10 12 9 0 19 -9 22 -21z m115 -29 c0 -5 -5 -10 -11 -10 -5
0 -7 5 -4 10 3 6 8 10 11 10 2 0 4 -4 4 -10z m2861 -19 c-48 -67 -45 -106 12
-183 37 -50 40 -59 21 -51 -14 5 -15 3 -5 -15 8 -15 8 -22 1 -22 -5 0 -10 6
-10 14 0 8 -7 16 -15 20 -8 3 -15 10 -15 17 0 6 7 9 15 5 8 -3 15 -1 15 4 0
12 -37 23 -50 15 -7 -4 -10 4 -8 22 2 23 -1 29 -19 31 -13 2 -23 8 -23 13 0 6
5 7 11 3 8 -5 8 -1 0 14 -16 29 -14 37 15 72 15 17 24 34 20 37 -6 6 30 30 47
32 5 1 -1 -12 -12 -28z m-3059 -26 c6 -30 -12 -33 -42 -8 -26 22 -25 31 3 35
30 5 34 2 39 -27z m2974 -27 c-9 -12 -16 -30 -16 -40 0 -22 -1 -22 -34 -5 -14
8 -23 17 -19 20 3 4 12 2 20 -4 7 -6 13 -7 13 -2 0 12 42 64 48 59 2 -3 -3
-15 -12 -28z m-2866 -157 c0 -15 -16 -22 -34 -15 -25 9 -19 24 9 24 14 0 25
-4 25 -9z m1000 -42 c0 -11 -4 -17 -10 -14 -5 3 -10 15 -10 26 0 11 5 17 10
14 6 -3 10 -15 10 -26z m2030 -36 c8 -16 14 -32 15 -38 0 -5 3 -12 6 -15 3 -3
9 -22 12 -43 4 -27 3 -37 -6 -34 -7 2 -13 14 -15 26 -3 17 -7 20 -16 11 -10
-7 -17 -6 -26 5 -11 14 -10 17 9 22 17 4 21 12 19 31 -2 14 -9 28 -17 30 -8 3
-11 0 -7 -7 4 -6 2 -11 -3 -11 -6 0 -11 4 -11 9 0 5 -6 11 -12 14 -7 2 -5 3 5
2 9 -2 17 3 17 11 0 23 16 16 30 -13z m-2040 -33 c0 -5 8 -10 18 -11 11 0 12
-2 4 -6 -7 -3 -19 0 -26 7 -10 7 -16 8 -21 0 -3 -5 -11 -10 -18 -10 -6 0 -2 7
9 15 23 17 34 19 34 5z m5 -30 c4 -6 11 -8 16 -5 5 4 9 1 9 -5 0 -9 -31 -9
-80 -1 -9 2 25 21 37 21 6 0 15 -5 18 -10z m-43 -34 c15 4 27 0 41 -17 13 -17
17 -19 13 -6 -3 9 -1 17 4 17 6 0 10 -7 10 -15 0 -8 6 -15 13 -15 6 0 4 -5 -6
-11 -12 -7 -15 -18 -11 -37 6 -27 6 -27 -11 3 -23 43 -42 55 -71 45 -23 -9
-35 2 -15 14 5 3 8 14 6 24 -1 9 0 11 2 4 3 -8 12 -10 25 -6z m2119 -45 c9 15
25 4 32 -21 4 -17 2 -20 -14 -15 -16 5 -20 3 -17 -11 2 -11 -4 -18 -19 -19
-13 -1 -23 4 -23 11 0 8 6 11 14 8 14 -5 31 22 18 30 -4 2 -24 7 -44 11 -21 4
-35 12 -32 17 3 5 12 7 20 4 8 -3 14 -1 14 5 0 5 10 1 22 -11 15 -14 24 -16
29 -9z m-2232 -61 c5 0 16 10 25 23 10 14 14 16 10 4 -5 -13 -2 -16 10 -11 10
4 15 13 12 20 -4 10 3 12 27 8 18 -3 38 -7 44 -10 18 -5 65 -112 57 -126 -4
-7 -3 -8 4 -4 7 4 12 1 12 -6 0 -7 4 -19 9 -27 8 -12 13 -12 35 3 14 9 26 12
26 6 0 -6 -11 -15 -25 -20 -17 -6 -27 -20 -31 -40 -4 -16 -11 -30 -15 -30 -5
0 -7 11 -3 25 4 15 0 34 -8 48 -8 12 -20 39 -27 59 -22 67 -70 84 -139 50 -34
-17 -106 -22 -120 -8 -8 8 19 36 34 36 8 0 14 -7 14 -15 0 -8 4 -15 9 -15 11
0 21 24 22 58 l2 27 4 -27 c2 -16 8 -28 12 -28z m2169 -19 c3 -8 -1 -12 -9 -9
-7 2 -15 10 -17 17 -3 8 1 12 9 9 7 -2 15 -10 17 -17z m-1961 -14 c10 4 14 2
10 -4 -4 -6 -1 -13 5 -16 9 -3 7 -7 -5 -12 -21 -9 -23 -8 -31 25 -3 14 -3 20
0 13 3 -7 12 -9 21 -6z m-607 -18 c0 -5 -4 -9 -10 -9 -5 0 -10 7 -10 16 0 8 5
12 10 9 6 -3 10 -10 10 -16z m50 -24 c-7 -8 -22 -15 -33 -15 -19 0 -19 1 4 23
26 25 51 18 29 -8z m40 25 c0 -5 -2 -10 -4 -10 -3 0 -8 5 -11 10 -3 6 -1 10 4
10 6 0 11 -4 11 -10z m115 -24 c19 -7 31 14 14 25 -9 6 -10 9 -2 9 7 0 17 -8
22 -17 8 -14 10 -14 11 -3 0 22 21 -3 23 -28 0 -11 5 -18 9 -16 11 7 10 -8 -2
-26 -9 -13 -11 -13 -20 0 -5 8 -10 23 -10 33 0 9 -4 17 -10 17 -5 0 -9 -3 -9
-7 5 -30 -3 -43 -25 -43 -14 0 -28 -5 -31 -11 -4 -6 -13 -8 -21 -5 -9 4 -14
-2 -14 -15 0 -19 1 -19 22 -5 28 20 62 20 82 1 16 -17 26 -19 26 -7 0 5 -10
14 -22 20 -22 11 -21 11 5 6 22 -5 32 -1 48 20 11 14 26 26 34 26 7 0 15 9 18
20 3 11 11 20 17 20 7 0 10 -6 7 -14 -4 -11 5 -10 41 4 48 18 62 16 98 -10 28
-21 64 -86 64 -116 0 -15 14 -40 36 -62 31 -33 35 -42 31 -82 -2 -25 -2 -37 0
-27 5 18 23 24 23 6 0 -6 7 -4 15 5 8 8 15 19 15 25 0 14 17 14 25 1 3 -5 -4
-19 -16 -31 -18 -18 -20 -25 -10 -41 9 -14 9 -23 1 -33 -8 -10 -8 -15 1 -21 8
-5 9 -3 4 6 -6 9 0 10 25 5 23 -5 31 -4 25 4 -5 8 1 10 19 5 22 -5 25 -3 19
11 -5 16 -2 17 24 12 17 -3 35 -1 41 5 8 8 9 5 5 -11 -5 -18 -10 -21 -32 -16
-25 6 -25 6 -8 -13 32 -35 64 -35 58 1 -2 16 9 5 24 -23 17 -32 38 -41 29 -12
-5 14 -4 14 6 -2 10 -14 10 -20 -1 -27 -7 -4 -17 -5 -22 -2 -5 3 -14 -1 -19
-8 -8 -11 -9 -10 -4 3 3 10 0 20 -6 24 -8 5 -9 -5 -6 -34 4 -26 2 -41 -4 -39
-6 1 -13 -4 -15 -11 -4 -10 2 -13 18 -10 19 2 24 -1 22 -17 -1 -11 4 -23 10
-27 9 -6 8 -8 -2 -8 -9 0 -11 -8 -7 -25 7 -27 4 -28 -31 -19 -25 7 -32 24 -10
24 7 0 18 14 24 30 6 17 7 30 2 30 -5 0 -9 -5 -9 -11 0 -14 -50 -62 -58 -55
-2 3 0 11 5 18 10 12 23 87 24 132 0 42 -54 70 -91 46 -12 -8 -11 -10 8 -10
40 0 62 -34 62 -95 0 -43 -4 -56 -19 -65 -29 -15 -30 -13 -24 25 9 55 -11 86
-82 130 -36 22 -65 46 -65 53 0 7 -4 11 -9 8 -5 -3 -12 20 -16 52 -5 42 -16
71 -42 110 -20 28 -40 52 -45 52 -5 0 -7 4 -4 9 8 12 -21 34 -34 26 -5 -3 -10
0 -10 8 0 36 -101 37 -170 2 -27 -14 -62 -25 -78 -25 -48 0 -89 -20 -117 -56
-14 -19 -31 -31 -37 -28 -6 4 -5 9 3 15 8 4 15 12 15 16 4 23 17 53 23 53 12
0 11 49 -1 56 -8 5 -9 2 -5 -9 3 -9 2 -19 -4 -22 -5 -4 -7 -11 -4 -16 4 -5 1
-9 -4 -9 -6 0 -11 -9 -11 -20 0 -23 -25 -27 -45 -6 -7 7 -15 28 -17 47 -2 26
-10 37 -31 47 -16 8 -36 10 -45 6 -9 -4 -19 -8 -22 -8 -3 -1 -14 -7 -25 -13
-12 -6 -29 -7 -42 -2 -28 10 -30 29 -3 29 11 0 20 -6 20 -12 0 -9 3 -8 10 2
13 21 65 27 148 18 23 -3 45 -1 48 3 3 5 0 9 -7 9 -7 0 -10 2 -7 5 10 10 56
-14 61 -32 4 -16 6 -15 12 5 7 22 25 31 25 13 0 -6 9 -9 20 -8 11 1 20 5 20
10 0 4 -8 7 -17 5 -17 -3 -19 2 -13 40 2 15 3 15 7 0 2 -9 10 -19 18 -22z
m120 3 c0 -8 -11 -15 -25 -16 -14 -1 -18 0 -7 3 21 7 23 24 2 24 -8 0 -15 4
-15 10 0 6 9 6 23 1 12 -5 22 -15 22 -22z m-355 0 c0 -6 -7 -9 -15 -6 -8 4
-17 2 -20 -3 -4 -6 -15 -10 -25 -10 -10 0 -20 -4 -22 -9 -1 -4 -12 -5 -23 0
-19 7 -19 8 3 8 12 1 22 5 22 10 0 5 8 7 19 4 10 -3 22 0 25 6 9 14 36 14 36
0z m682 -121 c-8 -8 -12 -9 -12 -1 0 6 -3 20 -6 30 -7 17 -6 17 12 1 14 -14
16 -20 6 -30z m25 -40 c-3 -8 -6 -5 -6 6 -1 11 2 17 5 13 3 -3 4 -12 1 -19z
m1892 -35 c2 -2 1 -6 -2 -10 -4 -3 -14 2 -23 13 -8 10 -13 14 -10 8 3 -7 0
-23 -7 -36 -11 -23 -14 -23 -42 -12 -17 7 -24 13 -17 14 7 0 10 5 6 11 -4 7 1
7 16 -1 19 -10 21 -9 19 7 -2 10 0 24 4 31 5 6 4 12 0 12 -5 0 -15 -6 -22 -12
-11 -11 -11 -9 -1 11 l12 23 31 -28 c18 -16 34 -30 36 -31z m-1917 9 c-4 -11
-8 -11 -20 1 -18 19 -7 42 12 24 8 -6 11 -18 8 -25z m68 8 c-12 -7 -12 -12 -2
-22 10 -10 15 -10 23 2 9 12 10 12 5 -3 -3 -10 -6 -24 -6 -30 0 -6 -13 2 -30
18 -31 30 -38 28 -18 -5 11 -16 10 -23 -6 -37 -18 -17 -19 -17 -12 1 3 10 1
25 -6 33 -10 13 -8 19 11 34 13 11 31 19 40 19 14 0 14 -2 1 -10z m11 -163
c-10 -9 -11 -8 -5 6 3 10 9 15 12 12 3 -3 0 -11 -7 -18z m1700 1 c-4 -12 -13
-24 -19 -26 -7 -2 -7 5 1 22 15 32 30 35 18 4z m-149 -146 c-18 -5 -31 9 -14
15 6 3 12 12 13 21 1 10 4 6 8 -8 5 -18 3 -26 -7 -28z m201 13 c-3 -9 -8 -14
-10 -11 -3 3 -2 9 2 15 9 16 15 13 8 -4z m-1398 -35 c3 -5 1 -10 -4 -10 -6 0
-11 5 -11 10 0 6 2 10 4 10 3 0 8 -4 11 -10z m1115 -70 c5 0 -1 -11 -14 -25
-13 -14 -28 -25 -35 -25 -6 0 -11 -5 -11 -12 0 -6 -3 -8 -6 -5 -4 4 1 18 10
32 15 22 15 26 1 31 -8 3 -15 10 -15 16 0 5 4 7 9 3 5 -3 12 -1 16 5 4 6 12 5
21 -5 9 -8 19 -15 24 -15z m-1003 -7 c-2 -1 -14 1 -27 4 -22 6 -22 7 -4 13 15
6 40 -8 31 -17z m-396 -10 c5 -41 2 -77 -7 -80 -8 -3 -13 13 -16 42 -2 31 1
45 9 45 7 0 13 -3 14 -7z m149 -32 c5 -11 7 -28 3 -38 -6 -16 -5 -16 10 -4 11
9 15 22 12 35 -5 17 -3 17 9 -4 13 -22 13 -27 -2 -43 -21 -23 -36 -17 -43 19
-3 16 -10 28 -17 27 -6 -2 -9 4 -6 12 8 21 21 19 34 -4z m1100 11 c0 -12 -23
-32 -37 -32 -7 0 -13 5 -13 11 0 6 7 9 15 5 9 -3 15 0 15 9 0 8 5 15 10 15 6
0 10 -4 10 -8z m-715 -12 c-4 -6 -1 -17 5 -25 11 -13 5 -15 -40 -15 -30 0 -50
3 -47 7 4 3 20 6 36 5 21 0 30 5 34 19 3 10 8 19 12 19 3 0 3 -5 0 -10z m-485
-31 c0 -5 -7 -6 -15 -3 -8 4 -15 13 -15 21 0 13 3 13 15 3 8 -7 15 -16 15 -21z
m1096 -11 c-19 -13 -24 -9 -19 11 4 16 8 17 18 8 9 -9 10 -14 1 -19z m-429
-10 c6 15 33 16 33 0 0 -6 -3 -9 -6 -5 -3 3 -16 -3 -27 -14 -20 -19 -22 -19
-29 -2 -13 34 -9 50 8 28 11 -14 18 -16 21 -7z m333 12 c0 -5 -2 -10 -4 -10
-3 0 -8 5 -11 10 -3 6 -1 10 4 10 6 0 11 -4 11 -10z m-263 -6 c-3 -3 -12 -4
-19 -1 -8 3 -5 6 6 6 11 1 17 -2 13 -5z m-107 -34 c0 -11 -4 -20 -10 -20 -5 0
-10 2 -10 4 0 2 -3 11 -6 20 -4 11 -1 16 10 16 9 0 16 -8 16 -20z m-2 -47 c-9
-10 -13 -24 -11 -30 6 -16 -13 -17 -22 -2 -4 5 1 19 11 30 21 24 43 26 22 2z
m402 -193 c0 -5 -2 -10 -4 -10 -3 0 -8 5 -11 10 -3 6 -1 10 4 10 6 0 11 -4 11
-10z m-353 -26 c-3 -3 -12 -4 -19 -1 -8 3 -5 6 6 6 11 1 17 -2 13 -5z"/>
<path d="M5611 4924 c0 -11 3 -14 6 -6 3 7 2 16 -1 19 -3 4 -6 -2 -5 -13z"/>
<path d="M3227 3553 c-3 -15 -1 -32 4 -37 6 -6 9 -6 9 2 0 7 5 12 11 12 6 0 9
-7 5 -15 -3 -8 -1 -15 4 -15 5 0 9 11 8 24 -2 16 -7 22 -17 18 -8 -3 -12 -1
-8 4 3 6 2 16 -2 23 -6 9 -10 4 -14 -16z"/>
<path d="M3830 3269 c9 -16 14 -18 26 -8 21 17 17 29 -11 29 -23 0 -24 -2 -15
-21z"/>
<path d="M4780 6011 c0 -20 7 -35 20 -43 11 -7 20 -16 20 -21 0 -22 65 -87 87
-87 13 0 23 -5 23 -10 0 -17 -31 -24 -52 -11 -17 11 -18 10 -8 -9 6 -11 15
-20 20 -20 6 0 10 -4 10 -10 0 -5 -7 -10 -15 -10 -20 0 -32 -50 -14 -61 20
-12 38 10 43 51 2 19 4 38 5 42 0 4 10 9 20 13 11 3 18 12 15 19 -3 7 1 13 8
13 20 1 85 32 68 33 -13 0 -13 1 0 10 22 14 7 12 -33 -5 -66 -27 -95 -21 -149
35 -26 27 -48 59 -48 69 0 11 -4 23 -10 26 -6 4 -10 -7 -10 -24z"/>
<path d="M4762 5926 c-9 -20 -7 -29 13 -52 35 -41 48 -130 20 -140 -17 -7 -21
-24 -5 -24 15 0 50 42 50 61 0 9 -7 22 -15 29 -16 13 -21 35 -6 26 5 -3 11 1
15 9 3 8 1 15 -4 15 -14 0 -41 31 -34 41 3 5 12 2 20 -6 27 -26 35 -16 12 15
-12 17 -28 30 -35 30 -8 0 -11 5 -8 10 3 6 2 10 -3 10 -5 0 -14 -11 -20 -24z"/>
<path d="M4992 5863 c-15 -3 -22 -10 -18 -19 3 -8 -1 -14 -8 -14 -7 0 -21 -9
-31 -20 -10 -12 -13 -20 -6 -20 8 0 8 -4 0 -18 -15 -24 -4 -72 17 -72 12 0 13
4 3 21 -8 16 -8 28 2 48 7 14 12 29 11 33 -1 4 5 5 14 1 10 -4 17 2 21 17 4
16 8 18 14 8 6 -9 9 -4 9 15 0 15 -1 26 -2 26 -2 -1 -13 -4 -26 -6z"/>
<path d="M5053 5863 c-7 -3 -13 -11 -13 -18 0 -8 -11 -26 -25 -41 -38 -41 -41
-67 -11 -118 27 -46 44 -55 89 -46 l28 5 -34 18 c-59 32 -70 81 -37 156 22 47
22 51 3 44z"/>
<path d="M4840 5811 c0 -6 5 -13 10 -16 6 -3 10 1 10 9 0 9 -4 16 -10 16 -5 0
-10 -4 -10 -9z"/>
<path d="M4970 5631 c0 -16 31 -41 51 -41 10 0 19 5 19 10 0 6 -9 10 -19 10
-10 0 -21 7 -25 15 -6 16 -26 21 -26 6z"/>
<path d="M4670 5596 c0 -2 7 -7 16 -10 8 -3 12 -2 9 4 -6 10 -25 14 -25 6z"/>
<path d="M5070 5579 c0 -5 5 -7 10 -4 6 3 10 8 10 11 0 2 -4 4 -10 4 -5 0 -10
-5 -10 -11z"/>
<path d="M5000 5560 c0 -5 7 -10 15 -10 8 0 15 5 15 10 0 6 -7 10 -15 10 -8 0
-15 -4 -15 -10z"/>
<path d="M4578 5537 c6 -7 9 -26 6 -41 -6 -34 13 -26 27 12 10 26 0 42 -30 42
-10 0 -11 -3 -3 -13z"/>
<path d="M4620 5492 c0 -10 -5 -23 -11 -29 -16 -16 4 -23 24 -8 11 8 14 16 8
19 -6 4 -8 13 -4 21 3 8 0 15 -6 15 -6 0 -11 -8 -11 -18z"/>
<path d="M4570 5450 c0 -5 5 -10 11 -10 5 0 7 5 4 10 -3 6 -8 10 -11 10 -2 0
-4 -4 -4 -10z"/>
<path d="M4567 5389 c5 -41 2 -48 -23 -68 -24 -19 -38 -22 -76 -18 -55 5 -62
-3 -18 -20 30 -11 63 -6 120 21 33 15 38 70 11 105 l-19 25 5 -45z"/>
<path d="M4611 5388 c-1 -33 2 -38 22 -37 12 0 16 3 9 6 -10 4 -10 8 0 21 11
13 10 15 -4 9 -12 -4 -18 0 -21 16 -3 13 -5 7 -6 -15z"/>
<path d="M3960 5321 c0 -6 5 -13 10 -16 6 -3 10 1 10 9 0 9 -4 16 -10 16 -5 0
-10 -4 -10 -9z"/>
<path d="M5710 5305 c0 -8 -8 -15 -17 -15 -15 0 -16 -2 -3 -10 8 -5 15 -15 16
-22 4 -45 8 -48 14 -13 l7 40 2 -37 c1 -37 28 -66 46 -50 5 4 5 -1 2 -11 -4
-10 -3 -16 2 -12 5 3 12 1 16 -5 3 -5 2 -10 -3 -10 -12 0 -23 -38 -12 -45 11
-7 31 55 23 69 -4 6 -17 19 -30 29 -14 11 -23 29 -23 46 0 14 -9 34 -20 44
-17 14 -20 14 -20 2z"/>
<path d="M4055 5280 c1 -21 15 -41 15 -23 0 6 9 9 20 6 15 -4 20 0 20 16 0 16
-6 21 -28 21 -22 0 -28 -4 -27 -20z"/>
<path d="M4020 5280 c0 -5 5 -10 10 -10 6 0 10 5 10 10 0 6 -4 10 -10 10 -5 0
-10 -4 -10 -10z"/>
<path d="M4058 5233 c6 -2 12 -11 12 -19 0 -10 6 -11 22 -5 38 14 33 31 -9 30
-21 0 -32 -3 -25 -6z"/>
<path d="M5684 5170 c0 -11 5 -19 11 -17 5 2 10 10 10 17 0 7 -5 15 -10 17 -6
2 -11 -6 -11 -17z"/>
<path d="M5727 5178 c6 -7 15 -26 21 -43 l11 -30 -2 30 c-1 32 -13 55 -29 55
-7 0 -7 -4 -1 -12z"/>
<path d="M3810 4925 c0 -8 5 -15 10 -15 6 0 10 7 10 15 0 8 -4 15 -10 15 -5 0
-10 -7 -10 -15z"/>
<path d="M2781 4793 c-4 -85 -3 -110 4 -150 6 -34 5 -43 -6 -43 -12 0 -12 -2
0 -9 9 -6 11 -18 7 -35 -4 -15 -11 -24 -16 -21 -6 3 -10 -2 -10 -12 0 -21 -55
-85 -87 -101 -11 -7 -45 -14 -75 -18 -53 -6 -78 -23 -78 -53 0 -8 -11 -34 -26
-58 -36 -61 -138 -109 -239 -112 -38 -1 -85 -7 -104 -13 -45 -14 -129 -3 -163
22 -15 11 -35 20 -45 19 -16 0 -16 -1 2 -9 12 -5 14 -9 6 -9 -14 -1 -7 -15 7
-16 4 -1 23 -11 42 -23 34 -21 55 -26 93 -23 9 1 17 -2 17 -8 0 -5 -8 -12 -17
-14 -10 -3 -1 -5 20 -6 20 0 37 -5 37 -11 0 -18 49 -11 60 9 14 27 13 31 -7
24 -13 -5 -15 -3 -9 13 7 18 6 18 -11 1 -14 -14 -15 -19 -5 -26 11 -7 10 -9
-3 -14 -9 -4 -13 -3 -10 3 3 6 -5 10 -19 10 -39 0 -31 13 20 34 34 14 48 16
57 7 27 -27 165 -5 195 32 7 8 30 17 52 21 45 7 70 36 70 81 0 45 12 105 20
105 4 0 5 -19 3 -42 -3 -24 -2 -40 2 -36 3 3 7 20 7 37 1 36 3 36 51 16 55
-23 104 -3 136 55 14 25 36 54 49 64 50 40 59 101 22 156 -26 39 -31 60 -15
60 8 0 15 -4 15 -10 0 -5 7 -10 16 -10 12 0 15 7 12 25 -3 14 -2 25 2 25 10 0
21 -30 15 -40 -3 -4 2 -13 10 -20 9 -8 15 -8 15 -2 0 6 -6 13 -12 15 -10 4
-10 6 -1 6 7 1 18 -8 25 -19 7 -11 18 -20 23 -20 6 0 11 9 11 20 0 12 -7 20
-17 20 -10 0 -27 14 -39 30 -21 30 -73 44 -66 18 1 -7 1 -10 -1 -6 -2 4 -12 4
-21 1 -14 -5 -15 -3 -4 8 16 17 15 64 -2 78 -11 9 -14 4 -15 -26z"/>
<path d="M5815 4710 c-8 -13 5 -13 25 0 13 8 13 10 -2 10 -9 0 -20 -4 -23 -10z"/>
<path d="M5865 4700 c-3 -6 1 -7 9 -4 18 7 21 14 7 14 -6 0 -13 -4 -16 -10z"/>
<path d="M2960 4680 c0 -7 24 -20 36 -20 13 0 1 19 -16 23 -11 3 -20 2 -20 -3z"/>
<path d="M5820 4676 c0 -8 5 -18 10 -21 7 -4 5 -14 -5 -28 -21 -30 -19 -53 6
-70 15 -11 17 -16 7 -20 -8 -4 -7 -6 5 -6 15 -1 16 5 11 37 -4 27 -1 49 10 70
20 39 18 46 -16 50 -20 2 -28 -1 -28 -12z"/>
<path d="M3791 4653 c-16 -18 -8 -28 13 -16 8 4 12 13 8 20 -5 8 -11 7 -21 -4z"/>
<path d="M2895 4649 c-4 -5 -14 -8 -22 -5 -8 4 -3 -7 11 -25 19 -22 24 -37 20
-55 -5 -19 -3 -23 10 -18 18 7 22 59 5 69 -6 4 -8 13 -5 21 6 17 -10 28 -19
13z"/>
<path d="M3261 4634 c0 -11 3 -14 6 -6 3 7 2 16 -1 19 -3 4 -6 -2 -5 -13z"/>
<path d="M2890 4514 c0 -9 -14 -29 -30 -44 l-30 -28 44 0 c25 0 50 -4 57 -8 7
-4 10 -2 7 7 -3 8 -15 13 -29 11 -19 -3 -22 -1 -11 9 14 15 16 69 2 69 -5 0
-10 -7 -10 -16z"/>
<path d="M2799 4410 c-7 -44 -11 -55 -20 -67 -6 -7 -22 -13 -35 -13 -12 0 -26
-4 -29 -10 -11 -18 -68 -11 -92 12 -31 29 -53 11 -29 -23 15 -22 16 -22 16 -4
0 13 3 16 8 8 4 -6 20 -17 36 -23 23 -8 34 -7 52 5 14 9 34 13 47 10 28 -7 67
27 67 58 0 19 -18 60 -21 47z"/>
<path d="M2578 4272 c2 -18 -1 -39 -8 -47 -15 -18 -7 -30 13 -22 23 9 27 55 7
79 -17 21 -17 21 -12 -10z"/>
<path d="M2610 4229 c0 -5 5 -7 10 -4 6 3 10 8 10 11 0 2 -4 4 -10 4 -5 0 -10
-5 -10 -11z"/>
<path d="M1921 4183 c-2 -21 -67 -53 -110 -53 -22 0 -41 -4 -41 -10 0 -14 104
-12 118 2 6 6 15 8 19 4 4 -4 1 -11 -6 -15 -10 -6 -3 -12 23 -22 25 -9 36 -19
36 -34 0 -18 2 -17 14 5 7 14 11 36 9 49 -3 21 -2 22 11 12 8 -7 12 -19 9 -27
-3 -8 0 -14 7 -14 6 0 8 5 4 11 -5 8 1 10 20 7 14 -3 28 -2 31 1 2 4 -8 8 -22
9 -13 1 -32 11 -41 23 -11 13 -23 18 -35 14 -9 -4 -15 -11 -12 -16 3 -4 -3
-13 -14 -18 -29 -16 -33 -14 -20 10 8 15 8 19 0 15 -6 -4 -11 -3 -11 3 0 5 5
11 11 13 6 2 9 13 6 23 -2 11 -5 15 -6 8z"/>
<path d="M2516 4175 c-10 -7 -32 -12 -49 -10 -25 3 -37 -3 -67 -37 -24 -25
-40 -36 -44 -29 -4 6 -11 9 -16 6 -4 -3 -33 -6 -64 -6 -77 -2 -71 -18 7 -18
77 0 125 -14 144 -41 12 -17 21 -19 49 -14 31 6 39 2 70 -30 31 -32 35 -41 29
-69 -4 -18 -8 -52 -8 -76 l-1 -44 -14 33 c-7 18 -11 42 -8 52 12 49 -38 108
-92 108 -11 0 -25 7 -32 16 -22 26 -50 36 -113 40 -43 2 -68 -1 -87 -13 -26
-15 -29 -15 -55 5 -40 31 -113 30 -165 -3 -57 -36 -53 -59 5 -30 35 18 56 22
97 18 29 -2 58 -9 64 -14 6 -5 38 -6 70 -3 69 7 133 -7 159 -36 10 -11 26 -20
35 -20 26 0 66 -50 86 -107 14 -40 24 -53 39 -54 86 -3 133 -21 165 -62 8 -11
22 -27 30 -36 34 -38 43 -68 35 -128 -12 -95 -7 -200 10 -206 16 -7 19 67 4
95 -8 15 -8 19 0 14 6 -4 11 -2 11 3 0 6 -5 11 -11 11 -8 0 -8 4 1 15 27 32
50 92 50 129 0 33 -6 45 -39 75 -21 20 -46 52 -55 73 -21 44 -61 63 -115 54
-37 -6 -39 -5 -33 17 5 19 4 20 -11 8 -25 -20 -34 12 -13 44 25 38 19 64 -24
107 -38 38 -42 40 -85 34 -36 -6 -45 -4 -45 7 0 8 6 20 14 26 11 10 17 8 26
-6 9 -15 10 -11 4 16 -6 33 -5 34 10 18 22 -22 25 -21 19 2 -3 11 -13 21 -24
24 -10 3 -19 11 -19 17 0 9 4 9 13 3 15 -12 54 -27 44 -17 -4 4 2 13 13 21 20
14 27 33 13 33 -5 0 -16 -7 -27 -15z m-74 -43 c-7 -2 -12 -12 -12 -22 0 -17
-19 -30 -43 -30 -7 0 -4 5 6 11 9 5 17 14 17 20 0 16 24 37 35 31 5 -3 4 -7
-3 -10z"/>
<path d="M2540 4115 c0 -8 -5 -15 -12 -15 -6 0 -9 -2 -6 -5 3 -3 13 -3 22 1
17 7 22 34 6 34 -5 0 -10 -7 -10 -15z"/>
<path d="M1655 4109 c-4 -5 -16 -7 -28 -3 -21 6 -21 6 -2 -12 13 -13 20 -15
23 -6 4 14 39 16 44 3 5 -14 80 -18 85 -4 3 8 -7 11 -34 8 -28 -4 -32 -3 -13
3 14 4 20 10 15 14 -17 9 -84 8 -90 -3z"/>
<path d="M1558 4093 c6 -2 18 -2 25 0 6 3 1 5 -13 5 -14 0 -19 -2 -12 -5z"/>
<path d="M1800 4086 c0 -7 20 -19 45 -26 26 -7 54 -24 65 -38 l20 -25 0 24 c0
16 -11 31 -30 44 -16 11 -30 23 -30 28 0 4 -16 7 -35 7 -23 0 -35 -5 -35 -14z"/>
<path d="M2180 4050 c0 -5 5 -10 10 -10 6 0 10 5 10 10 0 6 -4 10 -10 10 -5 0
-10 -4 -10 -10z"/>
<path d="M2610 3965 c0 -8 7 -15 16 -15 14 0 14 3 4 15 -7 8 -14 15 -16 15 -2
0 -4 -7 -4 -15z"/>
<path d="M2617 3923 c3 -7 10 -13 16 -13 7 0 7 -4 -1 -12 -17 -17 -15 -33 3
-18 9 8 29 10 49 7 28 -4 34 -3 29 9 -3 8 -16 14 -29 14 -16 0 -22 4 -18 15 5
11 -1 14 -24 12 -19 -1 -28 -6 -25 -14z"/>
<path d="M2802 3919 c2 -7 10 -15 17 -17 8 -3 12 1 9 9 -2 7 -10 15 -17 17 -8
3 -12 -1 -9 -9z"/>
<path d="M2724 3894 c3 -9 6 -18 6 -20 0 -2 6 -4 14 -4 24 0 46 -29 46 -61 0
-16 5 -29 10 -29 6 0 10 -7 10 -15 0 -9 -6 -12 -15 -9 -8 4 -15 1 -15 -5 0 -6
18 -11 40 -11 35 0 43 -4 58 -30 21 -36 32 -38 32 -6 0 27 -43 61 -66 52 -20
-8 -34 26 -28 66 5 30 2 38 -21 56 -15 12 -31 19 -35 17 -5 -3 -11 -1 -15 5
-10 16 -28 11 -21 -6z"/>
<path d="M2899 3642 c15 -28 14 -38 -5 -57 -19 -19 -14 -28 10 -19 34 13 32
80 -3 92 -10 3 -10 0 -2 -16z"/>
<path d="M2930 3656 c0 -2 7 -7 16 -10 8 -3 12 -2 9 4 -6 10 -25 14 -25 6z"/>
<path d="M2844 3546 c-10 -8 -15 -20 -11 -30 4 -9 1 -16 -5 -16 -6 0 -9 -3 -5
-6 9 -9 32 9 32 26 0 8 5 15 12 15 19 0 25 12 9 18 -8 3 -22 0 -32 -7z"/>
<path d="M2865 3479 c8 -21 -14 -36 -26 -18 -11 18 -21 6 -17 -22 l3 -22 30
26 c25 21 28 28 17 39 -11 11 -12 10 -7 -3z"/>
<path d="M5856 3475 c4 -8 10 -15 16 -15 5 0 6 -4 3 -10 -3 -5 -1 -10 4 -10
19 0 12 29 -9 40 -16 9 -18 8 -14 -5z"/>
<path d="M5785 3430 c-3 -5 1 -10 9 -10 9 0 16 5 16 10 0 6 -4 10 -9 10 -6 0
-13 -4 -16 -10z"/>
<path d="M2770 3330 c0 -5 5 -10 11 -10 5 0 7 5 4 10 -3 6 -8 10 -11 10 -2 0
-4 -4 -4 -10z"/>
<path d="M5651 3296 c-9 -11 -9 -20 -2 -34 6 -11 8 -21 6 -24 -3 -3 2 -5 9 -5
11 0 13 5 5 19 -6 12 -6 25 1 38 12 23 -2 27 -19 6z"/>
<path d="M5769 3078 c4 -12 13 -24 19 -26 16 -5 3 36 -13 42 -11 4 -12 0 -6
-16z"/>
<path d="M5680 3051 c0 -5 6 -12 13 -14 7 -3 5 -6 -5 -6 -25 -1 -23 -31 2 -31
11 0 19 6 18 13 -2 7 5 11 17 8 39 -7 48 -6 52 7 4 9 -2 11 -23 6 -21 -5 -25
-4 -19 6 6 10 4 12 -8 7 -9 -3 -19 -2 -22 3 -8 13 -25 13 -25 1z"/>
<path d="M5796 3031 c-4 -7 -5 -15 -2 -18 9 -9 19 4 14 18 -4 11 -6 11 -12 0z"/>
<path d="M5731 2963 c-5 -21 -11 -46 -13 -57 -2 -10 -13 -23 -26 -27 -20 -7
-23 -5 -28 20 -4 16 -18 40 -33 54 -22 21 -39 25 -117 31 l-92 7 -28 -32 c-47
-51 -78 -79 -89 -80 -5 0 -34 -2 -62 -2 -42 -2 -58 -7 -79 -28 -28 -28 -49
-107 -38 -142 11 -36 -5 -104 -29 -116 -12 -6 -14 -9 -5 -7 10 3 20 1 23 -5 4
-5 3 -9 -2 -8 -4 1 -15 0 -23 -4 -8 -3 -27 -8 -42 -11 -19 -4 -34 -19 -48 -46
-24 -46 -25 -68 -5 -94 12 -16 12 -22 2 -29 -8 -6 -6 -7 6 -3 11 3 20 0 24 -9
3 -9 14 -20 24 -25 17 -10 17 -8 -2 34 -13 30 -17 54 -13 77 7 36 39 79 59 79
7 0 18 8 26 18 17 19 42 106 41 137 -2 35 18 81 46 107 29 27 89 54 98 45 4
-3 16 3 28 15 54 52 158 99 171 77 3 -4 12 -6 20 -2 36 13 86 -8 113 -47 15
-22 32 -39 37 -40 26 0 68 48 74 85 4 28 13 43 31 52 l25 13 -32 0 c-29 0 -33
-4 -42 -37z"/>
<path d="M5674 2966 c-1 -19 3 -23 22 -22 17 1 24 7 24 21 0 17 -2 17 -10 5
-8 -13 -10 -12 -10 3 0 26 -25 20 -26 -7z"/>
<path d="M5685 2919 c-4 -6 -5 -13 -2 -16 7 -7 27 6 27 18 0 12 -17 12 -25 -2z"/>
<path d="M4065 2910 c-4 -6 5 -10 20 -10 15 0 24 4 20 10 -3 6 -12 10 -20 10
-8 0 -17 -4 -20 -10z"/>
<path d="M4196 2890 c-45 -34 -66 -37 -100 -15 -28 18 -107 16 -114 -3 -2 -8
8 -11 35 -10 21 0 56 -5 77 -12 32 -10 49 -10 92 0 29 7 73 10 97 7 75 -10
197 -83 181 -108 -4 -8 -3 -9 4 -5 8 5 12 0 12 -13 0 -11 5 -23 10 -26 6 -3
10 -28 10 -55 0 -48 2 -51 59 -97 32 -26 72 -55 89 -65 41 -22 64 -59 65 -105
1 -58 -14 -176 -25 -196 -14 -27 -4 -31 17 -7 12 14 18 37 19 80 1 46 6 64 18
71 25 14 33 84 13 115 -36 56 -57 72 -100 79 -32 4 -42 10 -39 20 8 19 83 16
107 -3 23 -20 30 -11 12 15 -16 22 -75 37 -75 19 0 -6 -4 -5 -9 3 -11 17 -41
7 -41 -12 0 -12 -8 -10 -40 5 -44 22 -45 27 -28 92 10 38 9 54 -5 100 -21 67
-51 92 -117 101 -28 4 -66 18 -85 31 -48 32 -91 30 -139 -6z"/>
<path d="M4373 2908 c2 -9 27 -13 73 -13 50 0 77 -5 97 -18 24 -16 26 -22 23
-70 -2 -28 -1 -45 2 -37 2 8 11 19 18 23 18 10 18 81 2 94 -31 23 -98 36 -132
26 -19 -6 -40 -7 -47 -2 -21 13 -41 11 -36 -3z"/>
<path d="M5082 2898 c-20 -20 -13 -98 8 -98 5 0 8 13 8 30 -1 33 17 60 41 60
14 0 14 2 1 10 -20 13 -44 12 -58 -2z"/>
<path d="M4620 2700 c0 -5 7 -10 16 -10 8 0 12 5 9 10 -3 6 -10 10 -16 10 -5
0 -9 -4 -9 -10z"/>
<path d="M5006 2642 c-2 -4 4 -9 15 -9 11 -1 17 2 14 8 -7 11 -22 12 -29 1z"/>
<path d="M5101 2624 c0 -11 3 -14 6 -6 3 7 2 16 -1 19 -3 4 -6 -2 -5 -13z"/>
<path d="M4678 2603 c6 -2 18 -2 25 0 6 3 1 5 -13 5 -14 0 -19 -2 -12 -5z"/>
<path d="M4933 2510 c3 -11 1 -23 -4 -26 -5 -3 -9 -20 -9 -37 1 -60 -2 -67
-27 -67 -12 0 -23 -4 -23 -9 0 -14 49 -10 61 5 6 8 20 14 31 14 17 0 18 2 4
15 -24 24 -29 55 -13 73 11 12 13 22 6 35 -14 23 -33 22 -26 -3z"/>
<path d="M4765 2501 c-3 -5 -2 -12 3 -15 5 -3 9 1 9 9 0 17 -3 19 -12 6z"/>
<path d="M4790 2472 c0 -4 5 -13 12 -20 14 -14 -6 -118 -25 -125 -7 -2 -9 -8
-5 -12 4 -4 14 -3 21 3 8 7 17 9 20 5 4 -3 7 -1 7 5 0 7 5 12 10 12 7 0 7 -8
-1 -22 -8 -15 -8 -23 -2 -25 7 -3 7 -12 0 -28 -9 -19 -15 -21 -30 -13 -14 7
-22 5 -33 -9 -30 -38 -34 -51 -19 -56 9 -4 16 4 20 24 4 17 13 29 23 29 12 0
13 -3 4 -12 -14 -14 -16 -68 -2 -68 6 0 10 9 10 21 0 26 57 97 92 115 35 18
78 18 104 -1 20 -13 22 -12 33 12 13 29 0 54 -28 52 -14 0 -14 -1 -1 -7 8 -4
17 -18 18 -31 4 -23 3 -23 -13 -8 -27 28 -123 28 -142 0 -12 -16 -13 -15 -13
3 0 11 5 25 11 31 8 8 5 17 -11 33 -12 12 -19 28 -16 37 7 17 -18 63 -34 63
-6 0 -10 -4 -10 -8z m60 -96 c0 -3 -4 -8 -10 -11 -5 -3 -10 -1 -10 4 0 6 5 11
10 11 6 0 10 -2 10 -4z"/>
<path d="M4870 2460 c0 -11 6 -20 14 -20 9 0 12 -7 9 -20 -7 -25 -20 -26 -26
-2 -4 15 -5 15 -6 0 -1 -21 12 -30 33 -22 27 10 18 84 -10 84 -8 0 -14 -9 -14
-20z"/>
<path d="M4935 2350 c-3 -5 3 -10 14 -10 12 0 21 5 21 10 0 6 -6 10 -14 10 -8
0 -18 -4 -21 -10z"/>
<path d="M5046 2303 c-6 -14 -5 -15 5 -6 7 7 10 15 7 18 -3 3 -9 -2 -12 -12z"/>
<path d="M4740 2300 c-9 -6 -10 -10 -3 -10 6 0 15 5 18 10 8 12 4 12 -15 0z"/>
<path d="M4760 2280 c0 -6 14 -9 30 -8 17 1 30 6 30 10 0 4 -13 8 -30 8 -16 0
-30 -5 -30 -10z"/>
<path d="M4708 2156 c-4 -17 -1 -23 9 -19 7 3 10 10 7 15 -4 6 2 8 17 4 23 -7
23 -7 5 8 -27 22 -33 20 -38 -8z"/>
<path d="M4778 2143 c7 -3 16 -2 19 1 4 3 -2 6 -13 5 -11 0 -14 -3 -6 -6z"/>
<path d="M3980 5650 c0 -5 5 -10 10 -10 6 0 10 5 10 10 0 6 -4 10 -10 10 -5 0
-10 -4 -10 -10z"/>
<path d="M5465 5629 c-11 -17 1 -21 15 -4 8 9 8 15 2 15 -6 0 -14 -5 -17 -11z"/>
<path d="M5620 5529 c0 -5 5 -7 10 -4 6 3 10 8 10 11 0 2 -4 4 -10 4 -5 0 -10
-5 -10 -11z"/>
<path d="M3120 5130 c0 -5 5 -10 10 -10 6 0 10 5 10 10 0 6 -4 10 -10 10 -5 0
-10 -4 -10 -10z"/>
<path d="M2180 4530 c0 -5 5 -10 10 -10 6 0 10 5 10 10 0 6 -4 10 -10 10 -5 0
-10 -4 -10 -10z"/>
<path d="M2010 3769 c0 -5 5 -7 10 -4 6 3 10 8 10 11 0 2 -4 4 -10 4 -5 0 -10
-5 -10 -11z"/>
<path d="M2951 3104 c0 -11 3 -14 6 -6 3 7 2 16 -1 19 -3 4 -6 -2 -5 -13z"/>
<path d="M4980 2119 c0 -5 5 -7 10 -4 6 3 10 8 10 11 0 2 -4 4 -10 4 -5 0 -10
-5 -10 -11z"/>
<path d="M7485 8060 c-3 -5 -1 -10 4 -10 6 0 11 5 11 10 0 6 -2 10 -4 10 -3 0
-8 -4 -11 -10z"/>
<path d="M832 8043 c-7 -2 -16 -13 -22 -22 -7 -15 -4 -18 19 -18 23 0 29 5 29
24 0 23 -3 25 -26 16z"/>
<path d="M2160 8000 c0 -5 4 -10 9 -10 6 0 13 5 16 10 3 6 -1 10 -9 10 -9 0
-16 -4 -16 -10z"/>
<path d="M166 7962 c-5 -8 2 -15 47 -51 15 -12 17 -12 10 4 -6 18 -39 55 -47
55 -3 0 -7 -4 -10 -8z"/>
<path d="M880 7960 c0 -5 5 -10 10 -10 6 0 10 5 10 10 0 6 -4 10 -10 10 -5 0
-10 -4 -10 -10z"/>
<path d="M80 7941 c0 -6 4 -13 10 -16 6 -3 7 1 4 9 -7 18 -14 21 -14 7z"/>
<path d="M95 7880 c3 -5 8 -10 11 -10 2 0 4 5 4 10 0 6 -5 10 -11 10 -5 0 -7
-4 -4 -10z"/>
<path d="M7876 7873 c-4 -5 -13 -8 -19 -8 -7 0 -13 -8 -15 -17 -2 -13 3 -18
17 -18 13 0 22 -7 23 -17 3 -35 -4 -68 -15 -75 -6 -4 -8 -10 -4 -15 5 -4 11
-3 15 3 10 16 49 26 71 19 11 -3 21 -16 23 -27 2 -12 10 -24 18 -26 8 -3 12
-2 8 2 -3 4 0 23 8 41 18 45 18 48 -7 35 -29 -16 -49 -5 -49 25 0 21 -4 25
-19 20 -21 -6 -49 19 -31 30 15 9 12 35 -3 35 -8 0 -17 -3 -21 -7z"/>
<path d="M7820 7694 c0 -9 5 -14 12 -12 18 6 21 28 4 28 -9 0 -16 -7 -16 -16z"/>
<path d="M68 7315 c-9 -12 -15 -25 -11 -28 9 -9 35 22 31 37 -2 10 -8 8 -20
-9z"/>
<path d="M850 7315 c0 -2 10 -10 23 -16 20 -11 21 -11 8 4 -13 16 -31 23 -31
12z"/>
<path d="M1105 7280 c-3 -5 -1 -10 4 -10 6 0 11 5 11 10 0 6 -2 10 -4 10 -3 0
-8 -4 -11 -10z"/>
<path d="M140 7251 c0 -5 5 -13 10 -16 6 -3 10 -2 10 4 0 5 -4 13 -10 16 -5 3
-10 2 -10 -4z"/>
<path d="M7610 7080 c-8 -5 -11 -12 -8 -16 4 -3 14 1 23 10 18 17 9 21 -15 6z"/>
<path d="M790 7030 c0 -5 5 -10 10 -10 6 0 10 5 10 10 0 6 -4 10 -10 10 -5 0
-10 -4 -10 -10z"/>
<path d="M785 6970 c-3 -5 -1 -10 4 -10 6 0 11 5 11 10 0 6 -2 10 -4 10 -3 0
-8 -4 -11 -10z"/>
<path d="M221 6624 c0 -11 3 -14 6 -6 3 7 2 16 -1 19 -3 4 -6 -2 -5 -13z"/>
<path d="M171 6279 c-13 -5 -22 -12 -19 -14 6 -6 58 12 58 20 0 7 -11 5 -39
-6z"/>
<path d="M128 6223 c6 -2 18 -2 25 0 6 3 1 5 -13 5 -14 0 -19 -2 -12 -5z"/>
<path d="M72 5924 c-7 -8 -8 -14 -3 -14 10 0 25 19 20 25 -2 1 -10 -3 -17 -11z"/>
<path d="M0 5899 c0 -5 5 -7 10 -4 5 3 10 8 10 11 0 2 -4 4 -10 4 -5 0 -10 -5
-10 -11z"/>
<path d="M120 1960 c0 -5 5 -10 11 -10 5 0 7 5 4 10 -3 6 -8 10 -11 10 -2 0
-4 -4 -4 -10z"/>
<path d="M195 1910 c3 -5 8 -10 11 -10 2 0 4 5 4 10 0 6 -5 10 -11 10 -5 0 -7
-4 -4 -10z"/>
<path d="M8052 1785 c0 -16 2 -22 5 -12 2 9 2 23 0 30 -3 6 -5 -1 -5 -18z"/>
<path d="M172 1674 c-7 -8 -8 -14 -3 -14 10 0 25 19 20 25 -2 1 -10 -3 -17
-11z"/>
<path d="M7740 1400 c0 -5 5 -10 10 -10 6 0 10 5 10 10 0 6 -4 10 -10 10 -5 0
-10 -4 -10 -10z"/>
<path d="M705 1240 c-3 -5 -1 -10 4 -10 6 0 11 5 11 10 0 6 -2 10 -4 10 -3 0
-8 -4 -11 -10z"/>
<path d="M763 1193 c9 -2 23 -2 30 0 6 3 -1 5 -18 5 -16 0 -22 -2 -12 -5z"/>
<path d="M7540 1050 c0 -5 5 -10 10 -10 6 0 10 5 10 10 0 6 -4 10 -10 10 -5 0
-10 -4 -10 -10z"/>
<path d="M50 905 c0 -8 5 -15 11 -15 5 0 7 -4 4 -10 -3 -5 -4 -10 -1 -10 2 0
12 -3 22 -7 14 -5 16 -3 10 12 -4 11 -1 22 6 27 9 6 5 7 -9 3 -14 -4 -23 -2
-23 4 0 6 -4 11 -10 11 -5 0 -10 -7 -10 -15z"/>
<path d="M6920 590 c0 -5 5 -10 10 -10 6 0 10 5 10 10 0 6 -4 10 -10 10 -5 0
-10 -4 -10 -10z"/>
<path d="M8030 470 c0 -5 5 -10 10 -10 6 0 10 5 10 10 0 6 -4 10 -10 10 -5 0
-10 -4 -10 -10z"/>
<path d="M379 453 c-13 -16 -12 -17 4 -4 16 13 21 21 13 21 -2 0 -10 -8 -17
-17z"/>
<path d="M307 385 c-28 -27 -33 -35 -19 -35 5 0 18 14 30 30 28 37 25 38 -11
5z"/>
<path d="M1865 370 c-3 -5 1 -10 10 -10 9 0 13 5 10 10 -3 6 -8 10 -10 10 -2
0 -7 -4 -10 -10z"/>
<path d="M7980 351 c0 -5 5 -13 10 -16 6 -3 10 -2 10 4 0 5 -4 13 -10 16 -5 3
-10 2 -10 -4z"/>
<path d="M950 340 c-8 -5 -23 -11 -33 -14 -14 -5 -16 -10 -7 -25 8 -16 6 -22
-7 -30 -10 -5 -14 -13 -10 -18 5 -4 15 0 22 10 7 10 21 17 32 15 14 -2 18 4
20 35 1 20 1 37 0 36 -1 0 -9 -4 -17 -9z"/>
<path d="M199 288 c-1 -5 -2 -13 -3 -19 0 -6 -9 -16 -18 -23 -30 -22 -20 -28
12 -9 17 9 30 20 30 23 0 10 -20 35 -21 28z"/>
<path d="M6447 266 c-4 -10 -5 -21 -2 -24 9 -9 17 6 13 25 -3 17 -4 17 -11 -1z"/>
<path d="M8056 254 c-5 -14 -4 -15 9 -4 17 14 19 20 6 20 -5 0 -12 -7 -15 -16z"/>
<path d="M6873 245 c0 -8 4 -12 9 -9 4 3 8 9 8 15 0 5 -4 9 -8 9 -5 0 -9 -7
-9 -15z"/>
<path d="M6578 243 c7 -3 16 -2 19 1 4 3 -2 6 -13 5 -11 0 -14 -3 -6 -6z"/>
<path d="M865 219 c-4 -6 -5 -12 -2 -15 2 -3 7 2 10 11 7 17 1 20 -8 4z"/>
<path d="M805 190 c-3 -5 0 -12 6 -15 5 -4 8 -14 4 -24 -5 -12 -3 -13 6 -4 6
6 17 9 24 6 9 -3 12 2 8 15 -5 21 -39 36 -48 22z"/>
<path d="M6806 187 c3 -10 9 -15 12 -12 3 3 0 11 -7 18 -10 9 -11 8 -5 -6z"/>
<path d="M220 160 c0 -5 5 -10 11 -10 5 0 7 5 4 10 -3 6 -8 10 -11 10 -2 0 -4
-4 -4 -10z"/>
<path d="M7487 143 c-8 -8 11 -33 25 -33 7 0 6 5 -1 13 -6 8 -8 17 -4 20 3 4
2 7 -4 7 -5 0 -13 -3 -16 -7z"/>
<path d="M7548 93 c-16 -4 -33 -32 -24 -40 7 -8 46 21 46 34 0 7 -1 12 -2 12
-2 -1 -10 -3 -20 -6z"/>
<path d="M700 10 c0 -5 7 -10 16 -10 8 0 12 5 9 10 -3 6 -10 10 -16 10 -5 0
-9 -4 -9 -10z"/>
</g>
</svg>
